<svg width="1802" height="128" viewBox="0 0 1802 128" fill="none" xmlns="http://www.w3.org/2000/svg">
<path d="M131.08 61.95V124H107.96V114.99C103.54 119.07 98.1 122.187 91.64 124.34C85.2933 126.493 77.7 127.57 68.86 127.57C58.66 127.57 49.3667 126.04 40.98 122.98C32.5933 119.92 25.3967 115.613 19.39 110.06C13.4967 104.393 8.90667 97.7067 5.62 90C2.33333 82.18 0.690001 73.6233 0.690001 64.33C0.690001 54.3567 2.16333 45.46 5.11 37.64C8.17 29.7067 12.5333 23.02 18.2 17.58C23.98 12.14 31.0067 8.00333 39.28 5.16999C47.6667 2.22333 57.2433 0.749996 68.01 0.749996C77.19 0.749996 85.5767 1.88333 93.17 4.14999C100.877 6.30333 107.45 9.53333 112.89 13.84C118.443 18.1467 122.693 23.4733 125.64 29.82C128.7 36.0533 130.23 43.1933 130.23 51.24L95.72 51.58C95.38 48.6333 94.4733 45.97 93 43.59C91.64 41.0967 89.77 38.9433 87.39 37.13C85.1233 35.2033 82.4033 33.73 79.23 32.71C76.0567 31.69 72.5433 31.18 68.69 31.18C63.59 31.18 59 32.0867 54.92 33.9C50.84 35.7133 47.3833 38.15 44.55 41.21C41.7167 44.27 39.5067 47.7833 37.92 51.75C36.4467 55.7167 35.71 59.91 35.71 64.33C35.71 68.6367 36.4467 72.7733 37.92 76.74C39.5067 80.7067 41.7167 84.22 44.55 87.28C47.3833 90.2267 50.84 92.6067 54.92 94.42C59 96.2333 63.59 97.14 68.69 97.14C74.2433 97.14 79.3433 96.12 83.99 94.08C88.75 92.04 92.15 89.0933 94.19 85.24H63.42V61.95H131.08ZM198.598 4.66H232.938L291.418 124H251.978L244.158 106.83H185.848L178.028 124H140.288L198.598 4.66ZM199.618 77.08H230.558L215.258 43.59L199.618 77.08ZM407.558 94.08V124H301.308V4.66H336.158V94.08H407.558ZM472.192 4.66H506.532L565.012 124H525.572L517.752 106.83H459.442L451.622 124H413.882L472.192 4.66ZM473.212 77.08H504.152L488.852 43.59L473.212 77.08ZM612.424 4.66L637.584 37.3L662.914 4.66H704.904L658.494 64.33L704.904 124H662.914L637.584 91.36L612.424 124H570.434L616.674 64.33L570.434 4.66H612.424ZM750.047 4.66L774.527 43.25L799.347 4.66H840.997L792.037 71.64V124H757.187V71.64L708.227 4.66H750.047ZM897.471 4.66H955.611C962.184 4.66 968.247 5.39666 973.801 6.87C979.467 8.34333 984.341 10.5533 988.421 13.5C992.501 16.3333 995.674 19.8467 997.941 24.04C1000.32 28.12 1001.51 32.88 1001.51 38.32C1001.51 45.5733 1000.15 51.41 997.431 55.83C994.711 60.25 990.801 63.7067 985.701 66.2C992.387 68.58 997.034 71.98 999.641 76.4C1002.25 80.82 1003.55 86.0333 1003.55 92.04C1003.55 98.2733 1002.36 103.43 999.981 107.51C997.601 111.59 994.427 114.877 990.461 117.37C986.494 119.75 981.904 121.45 976.691 122.47C971.591 123.49 966.321 124 960.881 124H897.471V4.66ZM932.321 52.26H951.871C957.424 52.26 961.447 51.6933 963.941 50.56C966.547 49.4267 967.851 46.99 967.851 43.25C967.851 39.6233 966.491 37.2433 963.771 36.11C961.164 34.9767 957.537 34.41 952.891 34.41H932.321V52.26ZM932.321 94.08H944.391C949.491 94.08 953.684 94.0233 956.971 93.91C960.257 93.6833 962.864 93.2867 964.791 92.72C966.717 92.1533 968.021 91.36 968.701 90.34C969.494 89.2067 969.891 87.7333 969.891 85.92C969.891 84.22 969.551 82.86 968.871 81.84C968.191 80.82 967.001 80.0267 965.301 79.46C963.601 78.8933 961.334 78.5533 958.501 78.44C955.667 78.2133 952.041 78.1 947.621 78.1H932.321V94.08ZM1048.99 4.66V52.77C1048.99 57.9833 1049.1 63.2533 1049.33 68.58C1049.67 73.7933 1050.58 78.5533 1052.05 82.86C1053.64 87.0533 1056.07 90.51 1059.36 93.23C1062.65 95.8367 1067.29 97.14 1073.3 97.14C1079.76 97.14 1084.75 95.8367 1088.26 93.23C1091.89 90.6233 1094.55 87.2233 1096.25 83.03C1097.95 78.8367 1098.97 74.19 1099.31 69.09C1099.65 63.8767 1099.82 58.72 1099.82 53.62V4.66H1134.67V60.08C1134.67 69.8267 1133.82 78.78 1132.12 86.94C1130.42 95.1 1127.25 102.183 1122.6 108.19C1118.07 114.083 1111.83 118.673 1103.9 121.96C1095.97 125.247 1085.77 126.89 1073.3 126.89C1060.72 126.89 1050.58 125.247 1042.87 121.96C1035.16 118.56 1029.16 113.913 1024.85 108.02C1020.66 102.013 1017.82 94.93 1016.35 86.77C1014.88 78.61 1014.14 69.7133 1014.14 60.08V4.66H1048.99ZM1149.32 4.49H1194.88C1207.68 4.49 1218.56 5.79333 1227.52 8.4C1236.58 11.0067 1243.95 14.86 1249.62 19.96C1255.4 25.06 1259.59 31.35 1262.2 38.83C1264.92 46.1967 1266.28 54.6967 1266.28 64.33C1266.28 73.9633 1264.92 82.52 1262.2 90C1259.59 97.3667 1255.4 103.6 1249.62 108.7C1243.95 113.687 1236.58 117.483 1227.52 120.09C1218.56 122.697 1207.68 124 1194.88 124H1149.32V4.49ZM1184.17 94.08H1191.99C1199.35 94.08 1205.64 93.6833 1210.86 92.89C1216.07 91.9833 1220.32 90.4533 1223.61 88.3C1226.89 86.0333 1229.27 82.9733 1230.75 79.12C1232.33 75.2667 1233.13 70.3933 1233.13 64.5C1233.13 58.72 1232.33 53.9033 1230.75 50.05C1229.27 46.0833 1226.89 42.9667 1223.61 40.7C1220.32 38.32 1216.07 36.6767 1210.86 35.77C1205.64 34.75 1199.35 34.24 1191.99 34.24H1184.17V94.08ZM1307.68 79.8C1307.91 82.0667 1308.36 84.2767 1309.04 86.43C1309.72 88.47 1310.8 90.34 1312.27 92.04C1313.75 93.6267 1315.67 94.93 1318.05 95.95C1320.55 96.97 1323.66 97.48 1327.4 97.48C1332.84 97.48 1336.7 96.7433 1338.96 95.27C1341.23 93.7967 1342.36 91.9267 1342.36 89.66C1342.36 88.1867 1341.8 86.94 1340.66 85.92C1339.53 84.9 1338 84.05 1336.07 83.37C1334.26 82.5767 1332.05 81.8967 1329.44 81.33C1326.95 80.65 1324.23 79.97 1321.28 79.29C1316.41 78.27 1311.31 77.0233 1305.98 75.55C1300.77 74.0767 1295.95 72.0367 1291.53 69.43C1287.23 66.71 1283.66 63.14 1280.82 58.72C1277.99 54.3 1276.57 48.5767 1276.57 41.55C1276.57 34.8633 1277.88 28.97 1280.48 23.87C1283.09 18.77 1286.6 14.52 1291.02 11.12C1295.56 7.72 1300.88 5.17 1307 3.46999C1313.12 1.76999 1319.64 0.919994 1326.55 0.919994C1343.67 0.919994 1356.36 5.16999 1364.63 13.67C1373.02 22.17 1377.44 34.1267 1377.89 49.54H1344.4C1344.4 47.6133 1344.18 45.5733 1343.72 43.42C1343.27 41.2667 1342.36 39.2833 1341 37.47C1339.76 35.5433 1337.94 33.9567 1335.56 32.71C1333.3 31.4633 1330.29 30.84 1326.55 30.84C1321 30.84 1317.03 31.52 1314.65 32.88C1312.39 34.24 1311.25 35.8833 1311.25 37.81C1311.25 39.7367 1311.93 41.4367 1313.29 42.91C1314.65 44.27 1316.47 45.46 1318.73 46.48C1321 47.5 1323.61 48.4067 1326.55 49.2C1329.5 49.9933 1332.62 50.7867 1335.9 51.58C1340.89 52.7133 1345.88 54.0167 1350.86 55.49C1355.96 56.9633 1360.61 59.0033 1364.8 61.61C1369 64.2167 1372.4 67.56 1375 71.64C1377.61 75.72 1378.91 80.9333 1378.91 87.28C1378.91 94.6467 1377.5 100.88 1374.66 105.98C1371.94 111.08 1368.2 115.217 1363.44 118.39C1358.8 121.45 1353.36 123.66 1347.12 125.02C1340.89 126.493 1334.32 127.23 1327.4 127.23C1310.29 127.23 1297.14 123.207 1287.96 115.16C1278.9 107.113 1274.36 95.3267 1274.36 79.8H1307.68ZM1434.64 4.66H1486.66C1504.11 4.66 1517.43 8.06 1526.61 14.86C1535.9 21.5467 1540.55 31.5767 1540.55 44.95C1540.55 52.8833 1539.24 59.6267 1536.64 65.18C1534.14 70.62 1530.52 75.04 1525.76 78.44C1521.11 81.7267 1515.44 84.1067 1508.76 85.58C1502.18 87.0533 1494.82 87.79 1486.66 87.79H1469.49V124H1434.64V4.66ZM1469.49 58.04H1486.83C1489.43 58.04 1491.87 57.9267 1494.14 57.7C1496.52 57.4733 1498.61 56.9633 1500.43 56.17C1502.35 55.3767 1503.83 54.1867 1504.85 52.6C1505.98 51.0133 1506.55 48.8033 1506.55 45.97C1506.55 43.25 1506.09 41.1533 1505.19 39.68C1504.28 38.0933 1502.98 36.96 1501.28 36.28C1499.69 35.4867 1497.82 34.9767 1495.67 34.75C1493.63 34.5233 1491.42 34.41 1489.04 34.41H1469.49V58.04ZM1603.61 4.66C1614.27 4.66 1623.11 5.51 1630.13 7.20999C1637.16 8.90999 1642.71 11.46 1646.79 14.86C1650.99 18.1467 1653.88 22.2833 1655.46 27.27C1657.16 32.2567 1658.01 38.0933 1658.01 44.78C1658.01 52.26 1656.94 58.4933 1654.78 63.48C1652.63 68.4667 1649.17 72.5467 1644.41 75.72C1647.36 77.76 1649.74 80.0267 1651.55 82.52C1653.37 85.0133 1654.84 87.6767 1655.97 90.51C1657.11 93.3433 1657.84 96.29 1658.18 99.35C1658.64 102.297 1658.86 105.243 1658.86 108.19V124H1622.48V109.21C1622.48 103.997 1621.63 99.86 1619.93 96.8C1618.35 93.6267 1616.14 91.2467 1613.3 89.66C1610.47 88.0733 1607.13 87.0533 1603.27 86.6C1599.53 86.0333 1595.51 85.75 1591.2 85.75H1585.59V124H1550.74V4.66H1603.61ZM1598.17 56.85C1603.27 56.85 1607.52 56.7367 1610.92 56.51C1614.32 56.17 1617.04 55.6033 1619.08 54.81C1621.12 53.9033 1622.54 52.6567 1623.33 51.07C1624.24 49.4833 1624.69 47.3867 1624.69 44.78C1624.69 42.4 1624.18 40.53 1623.16 39.17C1622.26 37.6967 1620.9 36.62 1619.08 35.94C1617.27 35.26 1615.06 34.8633 1612.45 34.75C1609.96 34.5233 1607.07 34.41 1603.78 34.41H1585.59V56.85H1598.17ZM1737.04 127.91C1727.3 127.91 1718.34 126.38 1710.18 123.32C1702.14 120.26 1695.22 115.953 1689.44 110.4C1683.66 104.733 1679.13 98.0467 1675.84 90.34C1672.67 82.52 1671.08 73.9067 1671.08 64.5C1671.08 55.0933 1672.61 46.48 1675.67 38.66C1678.73 30.84 1683.1 24.1533 1688.76 18.6C1694.54 12.9333 1701.51 8.57 1709.67 5.51C1717.83 2.44999 1726.96 0.919994 1737.04 0.919994C1746 0.919994 1754.38 2.50666 1762.2 5.67999C1770.14 8.73999 1776.99 13.1033 1782.77 18.77C1788.67 24.3233 1793.26 31.01 1796.54 38.83C1799.94 46.5367 1801.64 55.0933 1801.64 64.5C1801.64 73.7933 1799.89 82.35 1796.37 90.17C1792.97 97.99 1788.33 104.677 1782.43 110.23C1776.65 115.783 1769.85 120.147 1762.03 123.32C1754.21 126.38 1745.88 127.91 1737.04 127.91ZM1737.04 97.82C1741.92 97.82 1746.22 96.9133 1749.96 95.1C1753.7 93.1733 1756.82 90.68 1759.31 87.62C1761.81 84.56 1763.68 81.0467 1764.92 77.08C1766.17 73 1766.79 68.8067 1766.79 64.5C1766.79 60.08 1766.17 55.8867 1764.92 51.92C1763.79 47.84 1761.98 44.27 1759.48 41.21C1756.99 38.15 1753.87 35.7133 1750.13 33.9C1746.51 31.9733 1742.14 31.01 1737.04 31.01C1731.83 31.01 1727.24 31.9167 1723.27 33.73C1719.31 35.5433 1716.02 38.0367 1713.41 41.21C1710.92 44.27 1708.99 47.84 1707.63 51.92C1706.39 55.8867 1705.76 60.08 1705.76 64.5C1705.76 68.92 1706.44 73.17 1707.8 77.25C1709.28 81.2167 1711.32 84.73 1713.92 87.79C1716.64 90.85 1719.93 93.2867 1723.78 95.1C1727.75 96.9133 1732.17 97.82 1737.04 97.82Z" fill="#191919"/>
<path d="M131.08 61.95H132.08V60.95H131.08V61.95ZM131.08 124V125H132.08V124H131.08ZM107.96 124H106.96V125H107.96V124ZM107.96 114.99H108.96V112.706L107.282 114.255L107.96 114.99ZM91.64 124.34L91.3238 123.391L91.3187 123.393L91.64 124.34ZM40.98 122.98L40.6372 123.919L40.6372 123.919L40.98 122.98ZM19.39 110.06L18.6969 110.781L18.704 110.788L18.7111 110.794L19.39 110.06ZM5.62 90L4.6981 90.3875L4.70016 90.3923L5.62 90ZM5.11 37.64L4.17697 37.2801L4.17423 37.2874L5.11 37.64ZM18.2 17.58L17.5146 16.8518L17.5075 16.8586L18.2 17.58ZM39.28 5.16999L39.604 6.11608L39.6115 6.11345L39.28 5.16999ZM93.17 4.14999L92.884 5.10821L92.8924 5.11073L92.9009 5.1131L93.17 4.14999ZM112.89 13.84L112.269 14.6241L112.277 14.6302L112.89 13.84ZM125.64 29.82L124.733 30.2411L124.738 30.2509L124.742 30.2607L125.64 29.82ZM130.23 51.24L130.24 52.2399L131.23 52.2302V51.24H130.23ZM95.72 51.58L94.7266 51.6946L94.8298 52.5888L95.7299 52.5799L95.72 51.58ZM93 43.59L92.1221 44.0688L92.1353 44.093L92.1497 44.1164L93 43.59ZM87.39 37.13L86.7424 37.8919L86.7627 37.9092L86.784 37.9254L87.39 37.13ZM79.23 32.71L79.536 31.758L79.536 31.758L79.23 32.71ZM54.92 33.9L54.5139 32.9862L54.5139 32.9862L54.92 33.9ZM44.55 41.21L45.2838 41.8894L45.2838 41.8894L44.55 41.21ZM37.92 51.75L36.9915 51.3786L36.9869 51.3902L36.9826 51.4018L37.92 51.75ZM37.92 76.74L36.9826 77.0882L36.9869 77.0998L36.9915 77.1114L37.92 76.74ZM44.55 87.28L43.8162 87.9594L43.8226 87.9663L43.8292 87.9731L44.55 87.28ZM83.99 94.08L83.5961 93.1608L83.588 93.1644L83.99 94.08ZM94.19 85.24L95.0738 85.7079L95.8509 84.24H94.19V85.24ZM63.42 85.24H62.42V86.24H63.42V85.24ZM63.42 61.95V60.95H62.42V61.95H63.42ZM130.08 61.95V124H132.08V61.95H130.08ZM131.08 123H107.96V125H131.08V123ZM108.96 124V114.99H106.96V124H108.96ZM107.282 114.255C102.979 118.227 97.6671 121.277 91.3238 123.391L91.9562 125.289C98.5329 123.096 104.101 119.913 108.638 115.725L107.282 114.255ZM91.3187 123.393C85.1026 125.502 77.6235 126.57 68.86 126.57V128.57C77.7765 128.57 85.4841 127.485 91.9613 125.287L91.3187 123.393ZM68.86 126.57C58.7605 126.57 49.5851 125.055 41.3228 122.041L40.6372 123.919C49.1482 127.025 58.5595 128.57 68.86 128.57V126.57ZM41.3228 122.041C33.0492 119.022 25.9696 114.781 20.0689 109.326L18.7111 110.794C24.8237 116.446 32.1375 120.818 40.6372 123.919L41.3228 122.041ZM20.0831 109.339C14.2891 103.768 9.77512 97.1939 6.53984 89.6077L4.70016 90.3923C8.03821 98.2195 12.7042 105.019 18.6969 110.781L20.0831 109.339ZM6.54189 89.6125C3.31151 81.9265 1.69 73.5031 1.69 64.33H-0.309999C-0.309999 73.7436 1.35516 82.4335 4.69811 90.3875L6.54189 89.6125ZM1.69 64.33C1.69 54.4544 3.14891 45.6804 6.04577 37.9926L4.17423 37.2874C1.17776 45.2396 -0.309999 54.2589 -0.309999 64.33H1.69ZM6.043 37.9999C9.0547 30.1918 13.34 23.6318 18.8925 18.3014L17.5075 16.8586C11.7266 22.4082 7.2853 29.2216 4.177 37.2801L6.043 37.9999ZM18.8854 18.3082C24.5516 12.9752 31.4514 8.90803 39.604 6.11605L38.956 4.22393C30.5619 7.09863 23.4084 11.3048 17.5146 16.8518L18.8854 18.3082ZM39.6115 6.11345C47.8718 3.21117 57.3331 1.75 68.01 1.75V-0.250004C57.1535 -0.250004 47.4615 1.23549 38.9485 4.22653L39.6115 6.11345ZM68.01 1.75C77.1081 1.75 85.3968 2.87324 92.884 5.10821L93.456 3.19177C85.7566 0.893421 77.2719 -0.250004 68.01 -0.250004V1.75ZM92.9009 5.1131C100.499 7.23612 106.948 10.4115 112.269 14.624L113.511 13.056C107.952 8.65517 101.254 5.37053 93.4391 3.18688L92.9009 5.1131ZM112.277 14.6302C117.705 18.8395 121.854 24.0398 124.733 30.2411L126.547 29.3989C123.533 22.9068 119.182 17.4538 113.503 13.0498L112.277 14.6302ZM124.742 30.2607C127.725 36.3366 129.23 43.3219 129.23 51.24H131.23C131.23 43.0648 129.675 35.77 126.538 29.3793L124.742 30.2607ZM130.22 50.24L95.7102 50.58L95.7299 52.5799L130.24 52.2399L130.22 50.24ZM96.7134 51.4654C96.3576 48.3815 95.4056 45.5761 93.8503 43.0636L92.1497 44.1164C93.5411 46.3639 94.4024 48.8851 94.7266 51.6946L96.7134 51.4654ZM93.8779 43.1111C92.447 40.4878 90.4818 38.2285 87.996 36.3346L86.784 37.9254C89.0582 39.6582 90.833 41.7055 92.1221 44.0688L93.8779 43.1111ZM88.0377 36.3681C85.6593 34.3465 82.8196 32.8134 79.536 31.758L78.924 33.662C81.9871 34.6466 84.5874 36.0602 86.7424 37.8919L88.0377 36.3681ZM79.536 31.758C76.2497 30.7017 72.6313 30.18 68.69 30.18V32.18C72.4553 32.18 75.8636 32.6783 78.924 33.662L79.536 31.758ZM68.69 30.18C63.4699 30.18 58.7387 31.1085 54.5139 32.9862L55.3261 34.8138C59.2613 33.0648 63.7101 32.18 68.69 32.18V30.18ZM54.5139 32.9862C50.3188 34.8507 46.7481 37.3642 43.8162 40.5306L45.2838 41.8894C48.0185 38.9358 51.3612 36.576 55.3261 34.8138L54.5139 32.9862ZM43.8162 40.5306C40.8976 43.6827 38.6226 47.301 36.9915 51.3786L38.8485 52.1214C40.3908 48.2656 42.5357 44.8573 45.2838 41.8894L43.8162 40.5306ZM36.9826 51.4018C35.466 55.4848 34.71 59.7965 34.71 64.33H36.71C36.71 60.0235 37.4273 55.9485 38.8574 52.0982L36.9826 51.4018ZM34.71 64.33C34.71 68.7534 35.4671 73.0081 36.9826 77.0882L38.8574 76.3918C37.4262 72.5386 36.71 68.52 36.71 64.33H34.71ZM36.9915 77.1114C38.6226 81.189 40.8976 84.8073 43.8162 87.9594L45.2838 86.6006C42.5357 83.6327 40.3908 80.2244 38.8485 76.3686L36.9915 77.1114ZM43.8292 87.9731C46.7601 91.0213 50.3266 93.4728 54.5139 95.3338L55.3261 93.5062C51.3534 91.7405 48.0066 89.4321 45.2708 86.5869L43.8292 87.9731ZM54.5139 95.3338C58.7387 97.2115 63.4699 98.14 68.69 98.14V96.14C63.7101 96.14 59.2613 95.2552 55.3261 93.5062L54.5139 95.3338ZM68.69 98.14C74.3686 98.14 79.6071 97.0963 84.392 94.9956L83.588 93.1644C79.0796 95.1437 74.1181 96.14 68.69 96.14V98.14ZM84.3839 94.9991C89.3129 92.8867 92.9077 89.7994 95.0738 85.7079L93.3062 84.7721C91.3923 88.3872 88.1871 91.1933 83.5961 93.1609L84.3839 94.9991ZM94.19 84.24H63.42V86.24H94.19V84.24ZM64.42 85.24V61.95H62.42V85.24H64.42ZM63.42 62.95H131.08V60.95H63.42V62.95ZM198.598 4.66V3.66H197.974L197.699 4.22099L198.598 4.66ZM232.938 4.66L233.836 4.21996L233.561 3.66H232.938V4.66ZM291.418 124V125H293.022L292.316 123.56L291.418 124ZM251.978 124L251.068 124.414L251.335 125H251.978V124ZM244.158 106.83L245.068 106.416L244.801 105.83H244.158V106.83ZM185.848 106.83V105.83H185.205L184.938 106.416L185.848 106.83ZM178.028 124V125H178.671L178.938 124.414L178.028 124ZM140.288 124L139.389 123.561L138.686 125H140.288V124ZM199.618 77.08L198.712 76.6569L198.047 78.08H199.618V77.08ZM230.558 77.08V78.08H232.114L231.467 76.6645L230.558 77.08ZM215.258 43.59L216.167 43.1745L215.268 41.2053L214.352 43.1669L215.258 43.59ZM198.598 5.66H232.938V3.66H198.598V5.66ZM232.04 5.10003L290.52 124.44L292.316 123.56L233.836 4.21996L232.04 5.10003ZM291.418 123H251.978V125H291.418V123ZM252.888 123.586L245.068 106.416L243.248 107.244L251.068 124.414L252.888 123.586ZM244.158 105.83H185.848V107.83H244.158V105.83ZM184.938 106.416L177.118 123.586L178.938 124.414L186.758 107.244L184.938 106.416ZM178.028 123H140.288V125H178.028V123ZM141.186 124.439L199.496 5.099L197.699 4.22099L139.389 123.561L141.186 124.439ZM199.618 78.08H230.558V76.08H199.618V78.08ZM231.467 76.6645L216.167 43.1745L214.348 44.0055L229.648 77.4955L231.467 76.6645ZM214.352 43.1669L198.712 76.6569L200.524 77.5031L216.164 44.0131L214.352 43.1669ZM407.558 94.08H408.558V93.08H407.558V94.08ZM407.558 124V125H408.558V124H407.558ZM301.308 124H300.308V125H301.308V124ZM301.308 4.66V3.66H300.308V4.66H301.308ZM336.158 4.66H337.158V3.66H336.158V4.66ZM336.158 94.08H335.158V95.08H336.158V94.08ZM406.558 94.08V124H408.558V94.08H406.558ZM407.558 123H301.308V125H407.558V123ZM302.308 124V4.66H300.308V124H302.308ZM301.308 5.66H336.158V3.66H301.308V5.66ZM335.158 4.66V94.08H337.158V4.66H335.158ZM336.158 95.08H407.558V93.08H336.158V95.08ZM472.192 4.66V3.66H471.567L471.293 4.22099L472.192 4.66ZM506.532 4.66L507.43 4.21996L507.155 3.66H506.532V4.66ZM565.012 124V125H566.615L565.91 123.56L565.012 124ZM525.572 124L524.662 124.414L524.928 125H525.572V124ZM517.752 106.83L518.662 106.416L518.395 105.83H517.752V106.83ZM459.442 106.83V105.83H458.798L458.532 106.416L459.442 106.83ZM451.622 124V125H452.265L452.532 124.414L451.622 124ZM413.882 124L412.983 123.561L412.28 125H413.882V124ZM473.212 77.08L472.306 76.6569L471.641 78.08H473.212V77.08ZM504.152 77.08V78.08H505.708L505.061 76.6645L504.152 77.08ZM488.852 43.59L489.761 43.1745L488.862 41.2053L487.946 43.1669L488.852 43.59ZM472.192 5.66H506.532V3.66H472.192V5.66ZM505.634 5.10003L564.114 124.44L565.91 123.56L507.43 4.21996L505.634 5.10003ZM565.012 123H525.572V125H565.012V123ZM526.482 123.586L518.662 106.416L516.842 107.244L524.662 124.414L526.482 123.586ZM517.752 105.83H459.442V107.83H517.752V105.83ZM458.532 106.416L450.712 123.586L452.532 124.414L460.352 107.244L458.532 106.416ZM451.622 123H413.882V125H451.622V123ZM414.78 124.439L473.09 5.099L471.293 4.22099L412.983 123.561L414.78 124.439ZM473.212 78.08H504.152V76.08H473.212V78.08ZM505.061 76.6645L489.761 43.1745L487.942 44.0055L503.242 77.4955L505.061 76.6645ZM487.946 43.1669L472.306 76.6569L474.118 77.5031L489.758 44.0131L487.946 43.1669ZM612.424 4.66L613.216 4.04949L612.916 3.66H612.424V4.66ZM637.584 37.3L636.792 37.9105L637.582 38.9345L638.374 37.9131L637.584 37.3ZM662.914 4.66V3.66H662.425L662.124 4.04691L662.914 4.66ZM704.904 4.66L705.694 5.27394L706.949 3.66H704.904V4.66ZM658.494 64.33L657.705 63.7161L657.228 64.33L657.705 64.9439L658.494 64.33ZM704.904 124V125H706.949L705.694 123.386L704.904 124ZM662.914 124L662.124 124.613L662.425 125H662.914V124ZM637.584 91.36L638.374 90.7469L637.582 89.7255L636.792 90.7495L637.584 91.36ZM612.424 124V125H612.916L613.216 124.611L612.424 124ZM570.434 124L569.644 123.387L568.394 125H570.434V124ZM616.674 64.33L617.465 64.9425L617.939 64.33L617.465 63.7175L616.674 64.33ZM570.434 4.66V3.66H568.394L569.644 5.27253L570.434 4.66ZM611.632 5.2705L636.792 37.9105L638.376 36.6895L613.216 4.04949L611.632 5.2705ZM638.374 37.9131L663.704 5.27308L662.124 4.04691L636.794 36.6869L638.374 37.9131ZM662.914 5.66H704.904V3.66H662.914V5.66ZM704.115 4.04606L657.705 63.7161L659.284 64.9439L705.694 5.27394L704.115 4.04606ZM657.705 64.9439L704.115 124.614L705.694 123.386L659.284 63.7161L657.705 64.9439ZM704.904 123H662.914V125H704.904V123ZM663.704 123.387L638.374 90.7469L636.794 91.9731L662.124 124.613L663.704 123.387ZM636.792 90.7495L611.632 123.389L613.216 124.611L638.376 91.9705L636.792 90.7495ZM612.424 123H570.434V125H612.424V123ZM571.225 124.613L617.465 64.9425L615.884 63.7175L569.644 123.387L571.225 124.613ZM617.465 63.7175L571.225 4.04746L569.644 5.27253L615.884 64.9425L617.465 63.7175ZM570.434 5.66H612.424V3.66H570.434V5.66ZM750.047 4.66L750.892 4.12432L750.597 3.66H750.047V4.66ZM774.527 43.25L773.683 43.7857L774.522 45.1076L775.368 43.7909L774.527 43.25ZM799.347 4.66V3.66H798.802L798.506 4.11905L799.347 4.66ZM840.997 4.66L841.805 5.25012L842.967 3.66H840.997V4.66ZM792.037 71.64L791.23 71.0499L791.037 71.3135V71.64H792.037ZM792.037 124V125H793.037V124H792.037ZM757.187 124H756.187V125H757.187V124ZM757.187 71.64H758.187V71.3135L757.995 71.0499L757.187 71.64ZM708.227 4.66V3.66H706.258L707.42 5.25012L708.227 4.66ZM749.203 5.19567L773.683 43.7857L775.372 42.7143L750.892 4.12432L749.203 5.19567ZM775.368 43.7909L800.188 5.20094L798.506 4.11905L773.686 42.7091L775.368 43.7909ZM799.347 5.66H840.997V3.66H799.347V5.66ZM840.19 4.06988L791.23 71.0499L792.845 72.2301L841.805 5.25012L840.19 4.06988ZM791.037 71.64V124H793.037V71.64H791.037ZM792.037 123H757.187V125H792.037V123ZM758.187 124V71.64H756.187V124H758.187ZM757.995 71.0499L709.035 4.06988L707.42 5.25012L756.38 72.2301L757.995 71.0499ZM708.227 5.66H750.047V3.66H708.227V5.66ZM897.471 4.66V3.66H896.471V4.66H897.471ZM973.801 6.87L973.544 7.83657L973.549 7.83782L973.801 6.87ZM988.421 13.5L987.835 14.3107L987.843 14.3161L987.85 14.3214L988.421 13.5ZM997.941 24.04L997.061 24.5155L997.069 24.5298L997.077 24.5439L997.941 24.04ZM985.701 66.2L985.261 65.3016L983.127 66.3453L985.365 67.1421L985.701 66.2ZM999.641 76.4L998.779 76.908L998.779 76.908L999.641 76.4ZM999.981 107.51L999.117 107.006L999.117 107.006L999.981 107.51ZM990.461 117.37L990.975 118.227L990.984 118.222L990.993 118.217L990.461 117.37ZM976.691 122.47L976.499 121.489L976.494 121.489L976.691 122.47ZM897.471 124H896.471V125H897.471V124ZM932.321 52.26H931.321V53.26H932.321V52.26ZM963.941 50.56L963.542 49.6429L963.534 49.6462L963.527 49.6496L963.941 50.56ZM963.771 36.11L963.372 37.0271L963.379 37.0301L963.386 37.0331L963.771 36.11ZM932.321 34.41V33.41H931.321V34.41H932.321ZM932.321 94.08H931.321V95.08H932.321V94.08ZM956.971 93.91L957.005 94.9094L957.022 94.9088L957.039 94.9076L956.971 93.91ZM964.791 92.72L964.508 91.7606L964.508 91.7606L964.791 92.72ZM968.701 90.34L967.881 89.7665L967.875 89.7758L967.868 89.7853L968.701 90.34ZM968.871 81.84L969.703 81.2853L969.703 81.2853L968.871 81.84ZM965.301 79.46L965.617 78.5113L965.617 78.5113L965.301 79.46ZM958.501 78.44L958.421 79.4368L958.441 79.4384L958.461 79.4392L958.501 78.44ZM932.321 78.1V77.1H931.321V78.1H932.321ZM897.471 5.66H955.611V3.66H897.471V5.66ZM955.611 5.66C962.109 5.66 968.085 6.38834 973.544 7.83656L974.057 5.90344C968.409 4.40498 962.258 3.66 955.611 3.66V5.66ZM973.549 7.83782C979.115 9.28495 983.871 11.4475 987.835 14.3107L989.006 12.6893C984.81 9.65917 979.82 7.4017 974.052 5.90218L973.549 7.83782ZM987.85 14.3214C991.807 17.0691 994.872 20.466 997.061 24.5155L998.82 23.5645C996.476 19.2273 993.194 15.5975 988.991 12.6786L987.85 14.3214ZM997.077 24.5439C999.355 28.449 1000.51 33.0298 1000.51 38.32H1002.51C1002.51 32.7302 1001.29 27.791 998.804 23.5361L997.077 24.5439ZM1000.51 38.32C1000.51 45.4586 999.171 51.0943 996.579 55.3059L998.282 56.3541C1001.13 51.7257 1002.51 45.688 1002.51 38.32H1000.51ZM996.579 55.3059C993.967 59.5496 990.208 62.8834 985.261 65.3016L986.14 67.0984C991.393 64.53 995.454 60.9504 998.282 56.3541L996.579 55.3059ZM985.365 67.1421C991.915 69.4734 996.33 72.7553 998.779 76.908L1000.5 75.892C997.738 71.2047 992.859 67.6866 986.036 65.2579L985.365 67.1421ZM998.779 76.908C1001.28 81.1496 1002.55 86.1812 1002.55 92.04H1004.55C1004.55 85.8855 1003.21 80.4904 1000.5 75.892L998.779 76.908ZM1002.55 92.04C1002.55 98.1512 1001.38 103.12 999.117 107.006L1000.84 108.014C1003.34 103.74 1004.55 98.3954 1004.55 92.04H1002.55ZM999.117 107.006C996.817 110.948 993.757 114.117 989.928 116.523L990.993 118.217C995.097 115.637 998.384 112.232 1000.84 108.014L999.117 107.006ZM989.946 116.513C986.092 118.825 981.615 120.488 976.499 121.489L976.883 123.451C982.193 122.412 986.895 120.675 990.975 118.227L989.946 116.513ZM976.494 121.489C971.462 122.496 966.258 123 960.881 123V125C966.383 125 971.719 124.484 976.887 123.451L976.494 121.489ZM960.881 123H897.471V125H960.881V123ZM898.471 124V4.66H896.471V124H898.471ZM932.321 53.26H951.871V51.26H932.321V53.26ZM951.871 53.26C957.45 53.26 961.655 52.6971 964.354 51.4704L963.527 49.6496C961.239 50.6895 957.398 51.26 951.871 51.26V53.26ZM964.339 51.4771C965.843 50.8234 966.994 49.7772 967.755 48.3541C968.507 46.9485 968.851 45.229 968.851 43.25H966.851C966.851 45.011 966.543 46.3798 965.991 47.4108C965.449 48.4245 964.645 49.1633 963.542 49.6429L964.339 51.4771ZM968.851 43.25C968.851 41.3171 968.489 39.6311 967.699 38.2489C966.901 36.8522 965.703 35.8318 964.155 35.1869L963.386 37.0331C964.558 37.5216 965.4 38.2578 965.962 39.2411C966.532 40.2389 966.851 41.5562 966.851 43.25H968.851ZM964.169 35.1929C961.382 33.981 957.598 33.41 952.891 33.41V35.41C957.476 35.41 960.946 35.9723 963.372 37.0271L964.169 35.1929ZM952.891 33.41H932.321V35.41H952.891V33.41ZM931.321 34.41V52.26H933.321V34.41H931.321ZM932.321 95.08H944.391V93.08H932.321V95.08ZM944.391 95.08C949.497 95.08 953.702 95.0233 957.005 94.9094L956.936 92.9106C953.665 93.0234 949.485 93.08 944.391 93.08V95.08ZM957.039 94.9076C960.359 94.6787 963.047 94.2753 965.073 93.6794L964.508 91.7606C962.681 92.2981 960.156 92.688 956.902 92.9124L957.039 94.9076ZM965.073 93.6794C967.091 93.0858 968.662 92.2007 969.533 90.8947L967.868 89.7853C967.379 90.5192 966.343 91.2209 964.508 91.7606L965.073 93.6794ZM969.52 90.9135C970.462 89.5668 970.891 87.8753 970.891 85.92H968.891C968.891 87.5914 968.525 88.8465 967.881 89.7665L969.52 90.9135ZM970.891 85.92C970.891 84.0964 970.527 82.5218 969.703 81.2853L968.039 82.3947C968.574 83.1982 968.891 84.3436 968.891 85.92H970.891ZM969.703 81.2853C968.854 80.012 967.434 79.117 965.617 78.5113L964.984 80.4087C966.567 80.9363 967.527 81.628 968.039 82.3947L969.703 81.2853ZM965.617 78.5113C963.791 77.9028 961.42 77.556 958.541 77.4408L958.461 79.4392C961.248 79.5507 963.41 79.8838 964.984 80.4087L965.617 78.5113ZM958.58 77.4432C955.71 77.2136 952.054 77.1 947.621 77.1V79.1C952.027 79.1 955.624 79.2131 958.421 79.4368L958.58 77.4432ZM947.621 77.1H932.321V79.1H947.621V77.1ZM931.321 78.1V94.08H933.321V78.1H931.321ZM1048.99 4.66H1049.99V3.66H1048.99V4.66ZM1049.33 68.58L1048.33 68.6225L1048.33 68.6338L1048.33 68.6451L1049.33 68.58ZM1052.05 82.86L1051.1 83.1837L1051.11 83.1989L1051.11 83.2139L1052.05 82.86ZM1059.36 93.23L1058.72 94.0004L1058.73 94.007L1058.74 94.0135L1059.36 93.23ZM1088.26 93.23L1087.68 92.418L1087.67 92.4224L1087.66 92.4269L1088.26 93.23ZM1096.25 83.03L1097.18 83.4057L1097.18 83.4057L1096.25 83.03ZM1099.31 69.09L1100.31 69.1565L1100.31 69.1551L1099.31 69.09ZM1099.82 4.66V3.66H1098.82V4.66H1099.82ZM1134.67 4.66H1135.67V3.66H1134.67V4.66ZM1132.12 86.94L1133.1 87.144L1133.1 87.144L1132.12 86.94ZM1122.6 108.19L1121.81 107.578L1121.81 107.58L1122.6 108.19ZM1103.9 121.96L1104.28 122.884L1104.28 122.884L1103.9 121.96ZM1042.87 121.96L1042.47 122.875L1042.48 122.88L1042.87 121.96ZM1024.85 108.02L1024.03 108.592L1024.04 108.601L1024.04 108.61L1024.85 108.02ZM1016.35 86.77L1017.33 86.5923L1017.33 86.5923L1016.35 86.77ZM1014.14 4.66V3.66H1013.14V4.66H1014.14ZM1047.99 4.66V52.77H1049.99V4.66H1047.99ZM1047.99 52.77C1047.99 57.9978 1048.1 63.282 1048.33 68.6225L1050.33 68.5375C1050.1 63.2247 1049.99 57.9688 1049.99 52.77H1047.99ZM1048.33 68.6451C1048.68 73.9338 1049.6 78.7822 1051.1 83.1837L1053 82.5363C1051.55 78.3244 1050.66 73.6529 1050.33 68.5149L1048.33 68.6451ZM1051.11 83.2139C1052.76 87.561 1055.29 91.164 1058.72 94.0004L1060 92.4596C1056.85 89.856 1054.51 86.5457 1052.98 82.5061L1051.11 83.2139ZM1058.74 94.0135C1062.26 96.8097 1067.16 98.14 1073.3 98.14V96.14C1067.42 96.14 1063.03 94.8636 1059.98 92.4465L1058.74 94.0135ZM1073.3 98.14C1079.88 98.14 1085.11 96.8156 1088.86 94.0331L1087.66 92.4269C1084.39 94.8577 1079.64 96.14 1073.3 96.14V98.14ZM1088.84 94.042C1092.63 91.3237 1095.41 87.7715 1097.18 83.4057L1095.32 82.6543C1093.69 86.6752 1091.15 89.923 1087.68 92.418L1088.84 94.042ZM1097.18 83.4057C1098.92 79.1019 1099.96 74.3491 1100.31 69.1565L1098.31 69.0235C1097.98 74.0309 1096.98 78.5714 1095.32 82.6543L1097.18 83.4057ZM1100.31 69.1551C1100.65 63.9206 1100.82 58.7422 1100.82 53.62H1098.82C1098.82 58.6978 1098.65 63.8327 1098.31 69.0249L1100.31 69.1551ZM1100.82 53.62V4.66H1098.82V53.62H1100.82ZM1099.82 5.66H1134.67V3.66H1099.82V5.66ZM1133.67 4.66V60.08H1135.67V4.66H1133.67ZM1133.67 60.08C1133.67 69.7693 1132.82 78.6533 1131.14 86.736L1133.1 87.144C1134.81 78.9067 1135.67 69.884 1135.67 60.08H1133.67ZM1131.14 86.736C1129.47 94.7623 1126.35 101.703 1121.81 107.578L1123.39 108.802C1128.14 102.664 1131.37 95.4377 1133.1 87.144L1131.14 86.736ZM1121.81 107.58C1117.4 113.315 1111.31 117.806 1103.52 121.036L1104.28 122.884C1112.35 119.541 1118.74 114.852 1123.39 108.8L1121.81 107.58ZM1103.52 121.036C1095.75 124.255 1085.69 125.89 1073.3 125.89V127.89C1085.84 127.89 1096.19 126.238 1104.28 122.884L1103.52 121.036ZM1073.3 125.89C1060.79 125.89 1050.8 124.254 1043.26 121.04L1042.48 122.88C1050.35 126.239 1060.65 127.89 1073.3 127.89V125.89ZM1043.27 121.045C1035.7 117.705 1029.84 113.161 1025.66 107.43L1024.04 108.61C1028.47 114.666 1034.62 119.415 1042.47 122.875L1043.27 121.045ZM1025.67 107.448C1021.57 101.574 1018.78 94.6292 1017.33 86.5923L1015.37 86.9477C1016.86 95.2308 1019.74 102.453 1024.03 108.592L1025.67 107.448ZM1017.33 86.5923C1015.87 78.4994 1015.14 69.6631 1015.14 60.08H1013.14C1013.14 69.7636 1013.88 78.7205 1015.37 86.9477L1017.33 86.5923ZM1015.14 60.08V4.66H1013.14V60.08H1015.14ZM1014.14 5.66H1048.99V3.66H1014.14V5.66ZM1149.32 4.49V3.49H1148.32V4.49H1149.32ZM1227.52 8.4L1227.24 9.36014L1227.24 9.36107L1227.52 8.4ZM1249.62 19.96L1248.95 20.7033L1248.95 20.7098L1249.62 19.96ZM1262.2 38.83L1261.25 39.1591L1261.25 39.1677L1261.26 39.1764L1262.2 38.83ZM1262.2 90L1261.26 89.6582L1261.25 89.6664L1262.2 90ZM1249.62 108.7L1250.28 109.451L1250.28 109.45L1249.62 108.7ZM1227.52 120.09L1227.24 119.129L1227.24 119.13L1227.52 120.09ZM1149.32 124H1148.32V125H1149.32V124ZM1184.17 94.08H1183.17V95.08H1184.17V94.08ZM1210.86 92.89L1211.01 93.8786L1211.02 93.877L1211.03 93.8752L1210.86 92.89ZM1223.61 88.3L1224.15 89.1365L1224.16 89.13L1224.17 89.1232L1223.61 88.3ZM1230.75 79.12L1229.82 78.7393L1229.82 78.751L1229.81 78.7629L1230.75 79.12ZM1230.75 50.05L1229.81 50.3982L1229.81 50.4146L1229.82 50.4307L1230.75 50.05ZM1223.61 40.7L1223.02 41.5099L1223.03 41.5167L1223.04 41.5232L1223.61 40.7ZM1210.86 35.77L1210.66 36.7514L1210.67 36.7534L1210.68 36.7552L1210.86 35.77ZM1184.17 34.24V33.24H1183.17V34.24H1184.17ZM1149.32 5.49H1194.88V3.49H1149.32V5.49ZM1194.88 5.49C1207.62 5.49 1218.4 6.78769 1227.24 9.36013L1227.8 7.43986C1218.72 4.79897 1207.74 3.49 1194.88 3.49V5.49ZM1227.24 9.36107C1236.19 11.9356 1243.42 15.7259 1248.95 20.7033L1250.29 19.2167C1244.48 13.9941 1236.97 10.0778 1227.79 7.43893L1227.24 9.36107ZM1248.95 20.7098C1254.6 25.693 1258.7 31.8366 1261.25 39.1591L1263.14 38.5009C1260.48 30.8634 1256.19 24.427 1250.28 19.2102L1248.95 20.7098ZM1261.26 39.1764C1263.93 46.4102 1265.28 54.789 1265.28 64.33H1267.28C1267.28 54.6044 1265.9 45.9831 1263.13 38.4836L1261.26 39.1764ZM1265.28 64.33C1265.28 73.8706 1263.93 82.3081 1261.26 89.6583L1263.14 90.3417C1265.9 82.7319 1267.28 74.0561 1267.28 64.33H1265.28ZM1261.25 89.6664C1258.7 96.875 1254.61 102.964 1248.95 107.95L1250.28 109.45C1256.19 104.236 1260.48 97.8583 1263.14 90.3336L1261.25 89.6664ZM1248.96 107.949C1243.42 112.817 1236.2 116.553 1227.24 119.129L1227.79 121.051C1236.97 118.413 1244.48 114.556 1250.28 109.451L1248.96 107.949ZM1227.24 119.13C1218.4 121.702 1207.62 123 1194.88 123V125C1207.74 125 1218.72 123.691 1227.8 121.05L1227.24 119.13ZM1194.88 123H1149.32V125H1194.88V123ZM1150.32 124V4.49H1148.32V124H1150.32ZM1184.17 95.08H1191.99V93.08H1184.17V95.08ZM1191.99 95.08C1199.39 95.08 1205.73 94.6818 1211.01 93.8786L1210.71 91.9014C1205.56 92.6848 1199.32 93.08 1191.99 93.08V95.08ZM1211.03 93.8752C1216.33 92.9528 1220.72 91.3857 1224.15 89.1365L1223.06 87.4635C1219.92 89.521 1215.81 91.0138 1210.68 91.9048L1211.03 93.8752ZM1224.17 89.1232C1227.63 86.7378 1230.14 83.5126 1231.68 79.4771L1229.81 78.7629C1228.41 82.4341 1226.15 85.3289 1223.04 87.4768L1224.17 89.1232ZM1231.67 79.5007C1233.32 75.4877 1234.13 70.4739 1234.13 64.5H1232.13C1232.13 70.3128 1231.34 75.0457 1229.82 78.7393L1231.67 79.5007ZM1234.13 64.5C1234.13 58.6365 1233.32 53.6804 1231.67 49.6692L1229.82 50.4307C1231.34 54.1263 1232.13 58.8035 1232.13 64.5H1234.13ZM1231.68 49.7018C1230.14 45.5548 1227.64 42.2672 1224.17 39.8768L1223.04 41.5232C1226.15 43.6661 1228.4 46.6119 1229.81 50.3982L1231.68 49.7018ZM1224.19 39.8901C1220.75 37.3979 1216.35 35.7099 1211.03 34.7848L1210.68 36.7552C1215.79 37.6434 1219.89 39.2421 1223.02 41.5099L1224.19 39.8901ZM1211.05 34.7886C1205.75 33.7525 1199.39 33.24 1191.99 33.24V35.24C1199.31 35.24 1205.53 35.7475 1210.66 36.7514L1211.05 34.7886ZM1191.99 33.24H1184.17V35.24H1191.99V33.24ZM1183.17 34.24V94.08H1185.17V34.24H1183.17ZM1307.68 79.8L1308.68 79.7005L1308.59 78.8H1307.68V79.8ZM1309.04 86.43L1308.09 86.7311L1308.09 86.7387L1308.09 86.7462L1309.04 86.43ZM1312.27 92.04L1311.52 92.6949L1311.53 92.7079L1311.54 92.7205L1312.27 92.04ZM1318.05 95.95L1317.66 96.8691L1317.67 96.8724L1317.67 96.8755L1318.05 95.95ZM1338.96 95.27L1338.42 94.4316L1338.42 94.4316L1338.96 95.27ZM1340.66 85.92L1341.33 85.1767L1341.33 85.1767L1340.66 85.92ZM1336.07 83.37L1335.67 84.2862L1335.7 84.3008L1335.74 84.313L1336.07 83.37ZM1329.44 81.33L1329.18 82.2948L1329.2 82.3016L1329.23 82.3072L1329.44 81.33ZM1321.28 79.29L1321.51 78.3156L1321.5 78.3133L1321.49 78.3112L1321.28 79.29ZM1305.98 75.55L1305.71 76.5123L1305.72 76.5138L1305.98 75.55ZM1291.53 69.43L1291 70.2755L1291.01 70.2836L1291.02 70.2914L1291.53 69.43ZM1280.82 58.72L1279.98 59.2597L1279.98 59.2597L1280.82 58.72ZM1280.48 23.87L1279.59 23.4149L1279.59 23.4149L1280.48 23.87ZM1291.02 11.12L1290.42 10.3199L1290.41 10.3274L1291.02 11.12ZM1307 3.46999L1306.73 2.50647L1306.73 2.50647L1307 3.46999ZM1364.63 13.67L1363.92 14.3675L1363.92 14.3723L1364.63 13.67ZM1377.89 49.54V50.54H1378.92L1378.89 49.5106L1377.89 49.54ZM1344.4 49.54H1343.4V50.54H1344.4V49.54ZM1343.72 43.42L1344.7 43.214L1344.7 43.214L1343.72 43.42ZM1341 37.47L1340.16 38.0133L1340.18 38.0423L1340.2 38.07L1341 37.47ZM1335.56 32.71L1335.08 33.5862L1335.09 33.5911L1335.1 33.5958L1335.56 32.71ZM1314.65 32.88L1314.16 32.0118L1314.15 32.017L1314.14 32.0225L1314.65 32.88ZM1313.29 42.91L1312.56 43.5883L1312.57 43.603L1312.58 43.6171L1313.29 42.91ZM1335.9 51.58L1335.67 52.5522L1335.68 52.5551L1335.9 51.58ZM1350.86 55.49L1350.58 56.449L1350.58 56.4507L1350.86 55.49ZM1364.8 61.61L1364.27 62.4593L1364.8 61.61ZM1375 71.64L1375.84 71.1016L1375.84 71.1016L1375 71.64ZM1374.66 105.98L1373.79 105.494L1373.78 105.502L1373.78 105.509L1374.66 105.98ZM1363.44 118.39L1363.99 119.225L1364 119.222L1363.44 118.39ZM1347.12 125.02L1346.91 124.043L1346.9 124.045L1346.89 124.047L1347.12 125.02ZM1287.96 115.16L1287.3 115.908L1287.3 115.912L1287.96 115.16ZM1274.36 79.8V78.8H1273.36V79.8H1274.36ZM1306.69 79.8995C1306.92 82.234 1307.39 84.5116 1308.09 86.7311L1310 86.1289C1309.34 84.0417 1308.9 81.8993 1308.68 79.7005L1306.69 79.8995ZM1308.09 86.7462C1308.82 88.9164 1309.96 90.9004 1311.52 92.6949L1313.03 91.3851C1311.64 89.7796 1310.63 88.0236 1309.99 86.1138L1308.09 86.7462ZM1311.54 92.7205C1313.12 94.4275 1315.17 95.8047 1317.66 96.8691L1318.45 95.0309C1316.17 94.0553 1314.37 92.8258 1313 91.3595L1311.54 92.7205ZM1317.67 96.8755C1320.32 97.9598 1323.58 98.48 1327.4 98.48V96.48C1323.74 96.48 1320.77 95.9802 1318.43 95.0245L1317.67 96.8755ZM1327.4 98.48C1332.87 98.48 1336.98 97.7497 1339.51 96.1084L1338.42 94.4316C1336.41 95.7369 1332.81 96.48 1327.4 96.48V98.48ZM1339.51 96.1084C1341.99 94.4918 1343.36 92.3342 1343.36 89.66H1341.36C1341.36 91.5191 1340.46 93.1016 1338.42 94.4316L1339.51 96.1084ZM1343.36 89.66C1343.36 87.8921 1342.67 86.3788 1341.33 85.1767L1339.99 86.6633C1340.92 87.5012 1341.36 88.4812 1341.36 89.66H1343.36ZM1341.33 85.1767C1340.07 84.0443 1338.42 83.1368 1336.4 82.427L1335.74 84.313C1337.58 84.9632 1338.98 85.7557 1339.99 86.6633L1341.33 85.1767ZM1336.47 82.4538C1334.58 81.6267 1332.3 80.929 1329.65 80.3528L1329.23 82.3072C1331.79 82.8643 1333.94 83.5267 1335.67 84.2862L1336.47 82.4538ZM1329.7 80.3652C1327.2 79.6813 1324.46 78.9981 1321.51 78.3156L1321.06 80.2644C1323.99 80.9419 1326.7 81.6187 1329.18 82.2948L1329.7 80.3652ZM1321.49 78.3112C1316.64 77.296 1311.56 76.0545 1306.25 74.5862L1305.72 76.5138C1311.06 77.9922 1316.18 79.244 1321.08 80.2688L1321.49 78.3112ZM1306.25 74.5877C1301.12 73.1364 1296.38 71.1293 1292.04 68.5686L1291.02 70.2914C1295.52 72.944 1300.42 75.0169 1305.71 76.5123L1306.25 74.5877ZM1292.07 68.5845C1287.89 65.9451 1284.42 62.481 1281.66 58.1803L1279.98 59.2597C1282.89 63.799 1286.56 67.4749 1291 70.2755L1292.07 68.5845ZM1281.66 58.1803C1278.96 53.9674 1277.57 48.4485 1277.57 41.55H1275.57C1275.57 48.7049 1277.01 54.6326 1279.98 59.2597L1281.66 58.1803ZM1277.57 41.55C1277.57 34.9951 1278.85 29.2624 1281.37 24.3251L1279.59 23.4149C1276.9 28.6776 1275.57 34.7316 1275.57 41.55H1277.57ZM1281.37 24.3251C1283.91 19.3533 1287.33 15.2198 1291.63 11.9126L1290.41 10.3274C1285.87 13.8202 1282.26 18.1867 1279.59 23.4149L1281.37 24.3251ZM1291.62 11.92C1296.04 8.60322 1301.26 6.10419 1307.27 4.43351L1306.73 2.50647C1300.51 4.2358 1295.07 6.83677 1290.42 10.32L1291.62 11.92ZM1307.27 4.43351C1313.3 2.75975 1319.72 1.91999 1326.55 1.91999V-0.0800062C1319.56 -0.0800062 1312.95 0.780231 1306.73 2.50647L1307.27 4.43351ZM1326.55 1.91999C1343.52 1.91999 1355.9 6.13285 1363.92 14.3675L1365.35 12.9725C1356.82 4.20713 1343.81 -0.0800062 1326.55 -0.0800062V1.91999ZM1363.92 14.3723C1372.08 22.6448 1376.44 34.3326 1376.89 49.5694L1378.89 49.5106C1378.43 33.9207 1373.95 21.6952 1365.34 12.9676L1363.92 14.3723ZM1377.89 48.54H1344.4V50.54H1377.89V48.54ZM1345.4 49.54C1345.4 47.5351 1345.17 45.4257 1344.7 43.214L1342.74 43.626C1343.18 45.721 1343.4 47.6915 1343.4 49.54H1345.4ZM1344.7 43.214C1344.22 40.9135 1343.25 38.7965 1341.8 36.87L1340.2 38.07C1341.48 39.7702 1342.32 41.6198 1342.74 43.626L1344.7 43.214ZM1341.84 36.9267C1340.49 34.8325 1338.53 33.137 1336.03 31.8242L1335.1 33.5958C1337.35 34.7763 1339.02 36.2542 1340.16 38.0133L1341.84 36.9267ZM1336.04 31.8338C1333.58 30.4777 1330.39 29.84 1326.55 29.84V31.84C1330.19 31.84 1333.01 32.4489 1335.08 33.5862L1336.04 31.8338ZM1326.55 29.84C1320.97 29.84 1316.78 30.5144 1314.16 32.0118L1315.15 33.7482C1317.29 32.5256 1321.03 31.84 1326.55 31.84V29.84ZM1314.14 32.0225C1311.69 33.488 1310.25 35.4072 1310.25 37.81H1312.25C1312.25 36.3595 1313.08 34.9919 1315.17 33.7375L1314.14 32.0225ZM1310.25 37.81C1310.25 39.9991 1311.03 41.9385 1312.56 43.5883L1314.03 42.2317C1312.83 40.9348 1312.25 39.4742 1312.25 37.81H1310.25ZM1312.58 43.6171C1314.05 45.0838 1315.98 46.336 1318.32 47.3919L1319.14 45.5681C1316.96 44.584 1315.25 43.4562 1314 42.2029L1312.58 43.6171ZM1318.32 47.3919C1320.65 48.4381 1323.3 49.3614 1326.29 50.1656L1326.81 48.2344C1323.91 47.4519 1321.35 46.5619 1319.14 45.5681L1318.32 47.3919ZM1326.29 50.1656C1329.25 50.9614 1332.37 51.7569 1335.67 52.5521L1336.14 50.6079C1332.86 49.8164 1329.75 49.0252 1326.81 48.2344L1326.29 50.1656ZM1335.68 52.5551C1340.65 53.6837 1345.61 54.9816 1350.58 56.449L1351.15 54.531C1346.14 53.0517 1341.13 51.743 1336.12 50.6049L1335.68 52.5551ZM1350.58 56.4507C1355.6 57.9005 1360.16 59.9046 1364.27 62.4593L1365.33 60.7607C1361.05 58.1021 1356.32 56.0262 1351.14 54.5293L1350.58 56.4507ZM1364.27 62.4593C1368.34 64.9887 1371.63 68.2268 1374.16 72.1784L1375.84 71.1016C1373.16 66.8932 1369.65 63.4446 1365.33 60.7607L1364.27 62.4593ZM1374.16 72.1784C1376.64 76.0547 1377.91 81.0659 1377.91 87.28H1379.91C1379.91 80.8008 1378.58 75.3853 1375.84 71.1016L1374.16 72.1784ZM1377.91 87.28C1377.91 94.5205 1376.52 100.577 1373.79 105.494L1375.54 106.466C1378.47 101.183 1379.91 94.7728 1379.91 87.28H1377.91ZM1373.78 105.509C1371.14 110.465 1367.51 114.477 1362.89 117.558L1364 119.222C1368.9 115.956 1372.75 111.695 1375.54 106.451L1373.78 105.509ZM1362.89 117.555C1358.36 120.538 1353.04 122.705 1346.91 124.043L1347.34 125.997C1353.67 124.615 1359.23 122.362 1363.99 119.225L1362.89 117.555ZM1346.89 124.047C1340.74 125.501 1334.24 126.23 1327.4 126.23V128.23C1334.39 128.23 1341.04 127.486 1347.35 125.993L1346.89 124.047ZM1327.4 126.23C1310.43 126.23 1297.56 122.241 1288.62 114.408L1287.3 115.912C1296.73 124.173 1310.14 128.23 1327.4 128.23V126.23ZM1288.63 114.412C1279.83 106.606 1275.36 95.1265 1275.36 79.8H1273.36C1273.36 95.5268 1277.96 107.621 1287.3 115.908L1288.63 114.412ZM1274.36 80.8H1307.68V78.8H1274.36V80.8ZM1434.64 4.66V3.66H1433.64V4.66H1434.64ZM1526.61 14.86L1526.01 15.6636L1526.02 15.6717L1526.61 14.86ZM1536.64 65.18L1535.73 64.7551L1535.73 64.7633L1536.64 65.18ZM1525.76 78.44L1526.33 79.2564L1526.34 79.2537L1525.76 78.44ZM1508.76 85.58L1508.54 84.6034L1508.54 84.6042L1508.76 85.58ZM1469.49 87.79V86.79H1468.49V87.79H1469.49ZM1469.49 124V125H1470.49V124H1469.49ZM1434.64 124H1433.64V125H1434.64V124ZM1469.49 58.04H1468.49V59.04H1469.49V58.04ZM1494.14 57.7L1494.04 56.7045L1494.04 56.705L1494.14 57.7ZM1500.43 56.17L1500.05 55.2453L1500.04 55.2495L1500.03 55.2538L1500.43 56.17ZM1504.85 52.6L1504.03 52.0188L1504.02 52.0387L1504.01 52.0592L1504.85 52.6ZM1505.19 39.68L1504.32 40.1761L1504.33 40.1902L1504.34 40.2041L1505.19 39.68ZM1501.28 36.28L1500.83 37.1744L1500.87 37.193L1500.91 37.2085L1501.28 36.28ZM1495.67 34.75L1495.56 35.7439L1495.56 35.7445L1495.67 34.75ZM1469.49 34.41V33.41H1468.49V34.41H1469.49ZM1434.64 5.66H1486.66V3.66H1434.64V5.66ZM1486.66 5.66C1504 5.66 1517.07 9.04259 1526.01 15.6636L1527.2 14.0564C1517.78 7.0774 1504.22 3.66 1486.66 3.66V5.66ZM1526.02 15.6717C1535.01 22.1371 1539.55 31.8366 1539.55 44.95H1541.55C1541.55 31.3167 1536.79 20.9562 1527.19 14.0483L1526.02 15.6717ZM1539.55 44.95C1539.55 52.7779 1538.26 59.3677 1535.73 64.7551L1537.54 65.6049C1540.23 59.8856 1541.55 52.9888 1541.55 44.95H1539.55ZM1535.73 64.7633C1533.31 70.0485 1529.79 74.3302 1525.18 77.6263L1526.34 79.2537C1531.24 75.7498 1534.98 71.1915 1537.55 65.5967L1535.73 64.7633ZM1525.18 77.6236C1520.66 80.8193 1515.12 83.1531 1508.54 84.6034L1508.97 86.5566C1515.76 85.0602 1521.56 82.634 1526.33 79.2564L1525.18 77.6236ZM1508.54 84.6042C1502.05 86.0585 1494.76 86.79 1486.66 86.79V88.79C1494.88 88.79 1502.32 88.0482 1508.98 86.5558L1508.54 84.6042ZM1486.66 86.79H1469.49V88.79H1486.66V86.79ZM1468.49 87.79V124H1470.49V87.79H1468.49ZM1469.49 123H1434.64V125H1469.49V123ZM1435.64 124V4.66H1433.64V124H1435.64ZM1469.49 59.04H1486.83V57.04H1469.49V59.04ZM1486.83 59.04C1489.46 59.04 1491.93 58.9254 1494.24 58.695L1494.04 56.705C1491.81 56.9279 1489.41 57.04 1486.83 57.04V59.04ZM1494.23 58.6955C1496.7 58.4608 1498.9 57.9298 1500.83 57.0862L1500.03 55.2538C1498.33 55.9969 1496.34 56.4859 1494.04 56.7045L1494.23 58.6955ZM1500.81 57.0947C1502.9 56.232 1504.55 54.9174 1505.69 53.1408L1504.01 52.0592C1503.11 53.456 1501.8 54.5213 1500.05 55.2453L1500.81 57.0947ZM1505.66 53.1812C1506.96 51.3639 1507.55 48.9214 1507.55 45.97H1505.55C1505.55 48.6853 1505 50.6628 1504.03 52.0188L1505.66 53.1812ZM1507.55 45.97C1507.55 43.1617 1507.08 40.8528 1506.04 39.1559L1504.34 40.2041C1505.1 41.4539 1505.55 43.3383 1505.55 45.97H1507.55ZM1506.06 39.1839C1505.04 37.4007 1503.56 36.1152 1501.65 35.3515L1500.91 37.2085C1502.4 37.8048 1503.52 38.786 1504.32 40.1761L1506.06 39.1839ZM1501.72 35.3856C1500.01 34.5282 1498.02 33.992 1495.77 33.7555L1495.56 35.7445C1497.62 35.9613 1499.37 36.4451 1500.83 37.1744L1501.72 35.3856ZM1495.78 33.7561C1493.7 33.5248 1491.45 33.41 1489.04 33.41V35.41C1491.39 35.41 1493.56 35.5219 1495.56 35.7439L1495.78 33.7561ZM1489.04 33.41H1469.49V35.41H1489.04V33.41ZM1468.49 34.41V58.04H1470.49V34.41H1468.49ZM1630.13 7.20999L1630.37 6.23804L1630.37 6.23803L1630.13 7.20999ZM1646.79 14.86L1646.15 15.6282L1646.16 15.6378L1646.18 15.6471L1646.79 14.86ZM1655.46 27.27L1654.51 27.5732L1654.51 27.583L1654.52 27.5927L1655.46 27.27ZM1644.41 75.72L1643.86 74.8879L1642.63 75.7044L1643.84 76.5422L1644.41 75.72ZM1651.55 82.52L1652.36 81.9318L1652.36 81.9318L1651.55 82.52ZM1655.97 90.51L1656.9 90.1386L1656.9 90.1386L1655.97 90.51ZM1658.18 99.35L1657.19 99.4604L1657.19 99.4813L1657.19 99.5021L1658.18 99.35ZM1658.86 124V125H1659.86V124H1658.86ZM1622.48 124H1621.48V125H1622.48V124ZM1619.93 96.8L1619.04 97.2472L1619.05 97.2666L1619.06 97.2856L1619.93 96.8ZM1613.3 89.66L1612.81 90.5325L1612.81 90.5325L1613.3 89.66ZM1603.27 86.6L1603.12 87.5887L1603.14 87.5912L1603.16 87.5931L1603.27 86.6ZM1585.59 85.75V84.75H1584.59V85.75H1585.59ZM1585.59 124V125H1586.59V124H1585.59ZM1550.74 124H1549.74V125H1550.74V124ZM1550.74 4.66V3.66H1549.74V4.66H1550.74ZM1610.92 56.51L1610.99 57.5078L1611.01 57.5067L1611.02 57.505L1610.92 56.51ZM1619.08 54.81L1619.44 55.742L1619.47 55.7334L1619.49 55.7238L1619.08 54.81ZM1623.33 51.07L1622.46 50.5739L1622.45 50.598L1622.44 50.6228L1623.33 51.07ZM1623.16 39.17L1622.31 39.6941L1622.33 39.7332L1622.36 39.77L1623.16 39.17ZM1619.08 35.94L1618.73 36.8763L1618.73 36.8763L1619.08 35.94ZM1612.45 34.75L1612.36 35.7459L1612.39 35.748L1612.41 35.7491L1612.45 34.75ZM1585.59 34.41V33.41H1584.59V34.41H1585.59ZM1585.59 56.85H1584.59V57.85H1585.59V56.85ZM1603.61 5.66C1614.22 5.66 1622.97 6.5071 1629.9 8.18195L1630.37 6.23803C1623.24 4.51289 1614.31 3.66 1603.61 3.66V5.66ZM1629.9 8.18195C1636.83 9.85827 1642.22 12.355 1646.15 15.6282L1647.43 14.0918C1643.2 10.5649 1637.49 7.96171 1630.37 6.23804L1629.9 8.18195ZM1646.18 15.6471C1650.21 18.8122 1652.98 22.7816 1654.51 27.5732L1656.41 26.9668C1654.77 21.7851 1651.76 17.4811 1647.41 14.0729L1646.18 15.6471ZM1654.52 27.5927C1656.17 32.4518 1657.01 38.1749 1657.01 44.78H1659.01C1659.01 38.0117 1658.15 32.0615 1656.41 26.9473L1654.52 27.5927ZM1657.01 44.78C1657.01 52.1718 1655.95 58.2598 1653.86 63.0836L1655.7 63.8764C1657.92 58.7269 1659.01 52.3482 1659.01 44.78H1657.01ZM1653.86 63.0836C1651.79 67.8833 1648.47 71.8157 1643.86 74.8879L1644.97 76.552C1649.88 73.2776 1653.47 69.05 1655.7 63.8764L1653.86 63.0836ZM1643.84 76.5422C1646.71 78.5284 1649.01 80.7192 1650.74 83.1082L1652.36 81.9318C1650.47 79.3341 1648.01 76.9916 1644.98 74.8978L1643.84 76.5422ZM1650.74 83.1082C1652.51 85.5352 1653.94 88.1258 1655.04 90.8814L1656.9 90.1386C1655.74 87.2275 1654.22 84.4915 1652.36 81.9318L1650.74 83.1082ZM1655.04 90.8814C1656.14 93.6303 1656.86 96.4892 1657.19 99.4604L1659.18 99.2396C1658.83 96.0908 1658.07 93.0563 1656.9 90.1386L1655.04 90.8814ZM1657.19 99.5021C1657.64 102.399 1657.86 105.295 1657.86 108.19H1659.86C1659.86 105.192 1659.63 102.194 1659.17 99.1979L1657.19 99.5021ZM1657.86 108.19V124H1659.86V108.19H1657.86ZM1658.86 123H1622.48V125H1658.86V123ZM1623.48 124V109.21H1621.48V124H1623.48ZM1623.48 109.21C1623.48 103.904 1622.62 99.5781 1620.81 96.3144L1619.06 97.2856C1620.64 100.142 1621.48 104.09 1621.48 109.21H1623.48ZM1620.83 96.3528C1619.16 93.0176 1616.81 90.4811 1613.79 88.7875L1612.81 90.5325C1615.46 92.0122 1617.53 94.2358 1619.04 97.2472L1620.83 96.3528ZM1613.79 88.7875C1610.82 87.1253 1607.35 86.0726 1603.39 85.6068L1603.16 87.5931C1606.9 88.034 1610.11 89.0213 1612.81 90.5325L1613.79 88.7875ZM1603.42 85.6113C1599.63 85.0362 1595.55 84.75 1591.2 84.75V86.75C1595.47 86.75 1599.44 87.0305 1603.12 87.5887L1603.42 85.6113ZM1591.2 84.75H1585.59V86.75H1591.2V84.75ZM1584.59 85.75V124H1586.59V85.75H1584.59ZM1585.59 123H1550.74V125H1585.59V123ZM1551.74 124V4.66H1549.74V124H1551.74ZM1550.74 5.66H1603.61V3.66H1550.74V5.66ZM1598.17 57.85C1603.28 57.85 1607.56 57.7365 1610.99 57.5078L1610.86 55.5122C1607.49 55.7369 1603.26 55.85 1598.17 55.85V57.85ZM1611.02 57.505C1614.47 57.1605 1617.29 56.5811 1619.44 55.742L1618.72 53.878C1616.8 54.6255 1614.18 55.1795 1610.82 55.515L1611.02 57.505ZM1619.49 55.7238C1621.68 54.7479 1623.3 53.3603 1624.23 51.5172L1622.44 50.6228C1621.77 51.953 1620.56 53.0588 1618.68 53.8962L1619.49 55.7238ZM1624.2 51.5661C1625.22 49.7774 1625.69 47.4907 1625.69 44.78H1623.69C1623.69 47.2826 1623.26 49.1892 1622.46 50.5739L1624.2 51.5661ZM1625.69 44.78C1625.69 42.2681 1625.15 40.1603 1623.96 38.57L1622.36 39.77C1623.21 40.8997 1623.69 42.5319 1623.69 44.78H1625.69ZM1624.01 38.6459C1622.98 36.9608 1621.43 35.7518 1619.43 35.0037L1618.73 36.8763C1620.36 37.4882 1621.53 38.4325 1622.31 39.6941L1624.01 38.6459ZM1619.43 35.0037C1617.49 34.2764 1615.17 33.8674 1612.5 33.7509L1612.41 35.7491C1614.94 35.8593 1617.04 36.2436 1618.73 36.8763L1619.43 35.0037ZM1612.54 33.7541C1610.01 33.524 1607.09 33.41 1603.78 33.41V35.41C1607.05 35.41 1609.91 35.5227 1612.36 35.7459L1612.54 33.7541ZM1603.78 33.41H1585.59V35.41H1603.78V33.41ZM1584.59 34.41V56.85H1586.59V34.41H1584.59ZM1585.59 57.85H1598.17V55.85H1585.59V57.85ZM1710.18 123.32L1709.83 124.255L1709.83 124.256L1710.18 123.32ZM1689.44 110.4L1688.74 111.114L1688.75 111.121L1689.44 110.4ZM1675.84 90.34L1674.92 90.716L1674.92 90.7242L1674.92 90.7323L1675.84 90.34ZM1675.67 38.66L1674.74 38.2956L1674.74 38.2956L1675.67 38.66ZM1688.76 18.6L1689.46 19.3142L1689.46 19.3141L1688.76 18.6ZM1762.2 5.67999L1761.83 6.60661L1761.84 6.60987L1761.84 6.61299L1762.2 5.67999ZM1782.77 18.77L1782.07 19.4841L1782.08 19.491L1782.09 19.4978L1782.77 18.77ZM1796.54 38.83L1795.62 39.2175L1795.62 39.2256L1795.63 39.2336L1796.54 38.83ZM1796.37 90.17L1795.46 89.7602L1795.46 89.7713L1796.37 90.17ZM1782.43 110.23L1781.75 109.502L1781.74 109.509L1782.43 110.23ZM1762.03 123.32L1762.4 124.251L1762.41 124.247L1762.03 123.32ZM1749.96 95.1L1750.4 95.9998L1750.41 95.9945L1750.42 95.989L1749.96 95.1ZM1759.31 87.62L1758.54 86.9883L1758.54 86.9883L1759.31 87.62ZM1764.92 77.08L1765.88 77.3798L1765.88 77.3722L1764.92 77.08ZM1764.92 51.92L1763.96 52.1876L1763.96 52.2038L1763.97 52.2198L1764.92 51.92ZM1759.48 41.21L1760.26 40.5783L1760.26 40.5783L1759.48 41.21ZM1750.13 33.9L1749.66 34.7831L1749.68 34.7918L1749.7 34.7998L1750.13 33.9ZM1723.27 33.73L1723.69 34.6395L1723.69 34.6395L1723.27 33.73ZM1713.41 41.21L1712.64 40.5753L1712.64 40.5783L1713.41 41.21ZM1707.63 51.92L1706.68 51.6038L1706.68 51.6119L1706.68 51.6202L1707.63 51.92ZM1707.8 77.25L1706.85 77.5662L1706.86 77.5823L1706.87 77.5982L1707.8 77.25ZM1713.92 87.79L1713.16 88.4385L1713.17 88.4465L1713.18 88.4544L1713.92 87.79ZM1723.78 95.1L1723.36 96.0049L1723.37 96.0095L1723.78 95.1ZM1737.04 126.91C1727.4 126.91 1718.57 125.397 1710.53 122.384L1709.83 124.256C1718.12 127.363 1727.19 128.91 1737.04 128.91V126.91ZM1710.54 122.385C1702.61 119.37 1695.81 115.132 1690.14 109.679L1688.75 111.121C1694.63 116.774 1701.67 121.15 1709.83 124.255L1710.54 122.385ZM1690.14 109.686C1684.46 104.114 1680 97.5381 1676.76 89.9477L1674.92 90.7323C1678.26 98.5553 1682.87 105.352 1688.74 111.114L1690.14 109.686ZM1676.77 89.964C1673.65 82.2764 1672.08 73.7925 1672.08 64.5H1670.08C1670.08 74.0208 1671.69 82.7636 1674.92 90.716L1676.77 89.964ZM1672.08 64.5C1672.08 55.2031 1673.6 46.7151 1676.6 39.0244L1674.74 38.2956C1671.63 46.2448 1670.08 54.9836 1670.08 64.5H1672.08ZM1676.6 39.0244C1679.62 31.3282 1683.9 24.7629 1689.46 19.3142L1688.06 17.8858C1682.29 23.5438 1677.85 30.3518 1674.74 38.2956L1676.6 39.0244ZM1689.46 19.3141C1695.14 13.7523 1701.98 9.46118 1710.02 6.44632L1709.32 4.57367C1701.04 7.67882 1693.95 12.1144 1688.06 17.8859L1689.46 19.3141ZM1710.02 6.44632C1718.06 3.43449 1727.06 1.91999 1737.04 1.91999V-0.0800062C1726.86 -0.0800062 1717.61 1.4655 1709.32 4.57367L1710.02 6.44632ZM1737.04 1.91999C1745.88 1.91999 1754.13 3.48464 1761.83 6.60661L1762.58 4.75338C1754.63 1.52868 1746.12 -0.0800062 1737.04 -0.0800062V1.91999ZM1761.84 6.61299C1769.66 9.62648 1776.4 13.9176 1782.07 19.4841L1783.47 18.0559C1777.59 12.2891 1770.62 7.85351 1762.56 4.74699L1761.84 6.61299ZM1782.09 19.4978C1787.87 24.9509 1792.39 31.5199 1795.62 39.2175L1797.47 38.4425C1794.13 30.5001 1789.46 23.6958 1783.46 18.0422L1782.09 19.4978ZM1795.63 39.2336C1798.97 46.799 1800.64 55.2161 1800.64 64.5H1802.64C1802.64 54.9706 1800.92 46.2743 1797.46 38.4264L1795.63 39.2336ZM1800.64 64.5C1800.64 73.6641 1798.91 82.0796 1795.46 89.7602L1797.29 90.5798C1800.86 82.6204 1802.64 73.9226 1802.64 64.5H1800.64ZM1795.46 89.7713C1792.11 97.4738 1787.54 104.047 1781.75 109.502L1783.12 110.958C1789.12 105.307 1793.84 98.5062 1797.29 90.5687L1795.46 89.7713ZM1781.74 109.509C1776.06 114.97 1769.37 119.265 1761.66 122.393L1762.41 124.247C1770.34 121.028 1777.25 116.597 1783.13 110.951L1781.74 109.509ZM1761.67 122.389C1753.97 125.401 1745.77 126.91 1737.04 126.91V128.91C1746 128.91 1754.46 127.359 1762.4 124.251L1761.67 122.389ZM1737.04 98.82C1742.04 98.82 1746.5 97.8895 1750.4 95.9998L1749.53 94.2002C1745.94 95.9371 1741.79 96.82 1737.04 96.82V98.82ZM1750.42 95.989C1754.28 94.0035 1757.5 91.4253 1760.09 88.2517L1758.54 86.9883C1756.14 89.9347 1753.13 92.3432 1749.51 94.211L1750.42 95.989ZM1760.09 88.2517C1762.67 85.0882 1764.59 81.4609 1765.88 77.3798L1763.97 76.7802C1762.76 80.6324 1760.95 84.0318 1758.54 86.9883L1760.09 88.2517ZM1765.88 77.3722C1767.16 73.1966 1767.79 68.9047 1767.79 64.5H1765.79C1765.79 68.7086 1765.18 72.8034 1763.97 76.7878L1765.88 77.3722ZM1767.79 64.5C1767.79 59.9847 1767.16 55.6898 1765.88 51.6202L1763.97 52.2198C1765.18 56.0835 1765.79 60.1753 1765.79 64.5H1767.79ZM1765.89 51.6524C1764.72 47.4491 1762.85 43.753 1760.26 40.5783L1758.71 41.8417C1761.11 44.787 1762.86 48.2309 1763.96 52.1876L1765.89 51.6524ZM1760.26 40.5783C1757.67 37.3993 1754.43 34.8737 1750.57 33.0002L1749.7 34.7998C1753.31 36.553 1756.31 38.9007 1758.71 41.8417L1760.26 40.5783ZM1750.6 33.0169C1746.8 30.9971 1742.27 30.01 1737.04 30.01V32.01C1742.02 32.01 1746.21 32.9496 1749.66 34.7831L1750.6 33.0169ZM1737.04 30.01C1731.71 30.01 1726.98 30.937 1722.86 32.8205L1723.69 34.6395C1727.5 32.8963 1731.95 32.01 1737.04 32.01V30.01ZM1722.86 32.8205C1718.76 34.6931 1715.35 37.2771 1712.64 40.5753L1714.19 41.8447C1716.69 38.7962 1719.85 36.3936 1723.69 34.6395L1722.86 32.8205ZM1712.64 40.5783C1710.06 43.7402 1708.08 47.4193 1706.68 51.6038L1708.58 52.2362C1709.91 48.2607 1711.78 44.7998 1714.19 41.8417L1712.64 40.5783ZM1706.68 51.6202C1705.4 55.6898 1704.76 59.9847 1704.76 64.5H1706.76C1706.76 60.1753 1707.37 56.0835 1708.59 52.2198L1706.68 51.6202ZM1704.76 64.5C1704.76 69.0245 1705.46 73.3814 1706.85 77.5662L1708.75 76.9338C1707.43 72.9586 1706.76 68.8155 1706.76 64.5H1704.76ZM1706.87 77.5982C1708.38 81.6686 1710.48 85.2848 1713.16 88.4385L1714.68 87.1415C1712.16 84.1752 1710.18 80.7647 1708.74 76.9018L1706.87 77.5982ZM1713.18 88.4544C1715.99 91.6195 1719.39 94.1363 1723.36 96.0048L1724.21 94.1952C1720.47 92.4371 1717.3 90.0805 1714.67 87.1256L1713.18 88.4544ZM1723.37 96.0095C1727.48 97.8891 1732.04 98.82 1737.04 98.82V96.82C1732.3 96.82 1728.02 95.9375 1724.2 94.1905L1723.37 96.0095Z" fill="#A4A3A3"/>
</svg>
