<svg width="1802" height="128" viewBox="0 0 1802 128" fill="none" xmlns="http://www.w3.org/2000/svg">
<path d="M131.08 61.95V124H107.96V114.99C103.54 119.07 98.1 122.187 91.64 124.34C85.2933 126.493 77.7 127.57 68.86 127.57C58.66 127.57 49.3667 126.04 40.98 122.98C32.5933 119.92 25.3967 115.613 19.39 110.06C13.4967 104.393 8.90667 97.7067 5.62 90C2.33333 82.18 0.690001 73.6233 0.690001 64.33C0.690001 54.3567 2.16333 45.46 5.11 37.64C8.17 29.7067 12.5333 23.02 18.2 17.58C23.98 12.14 31.0067 8.00333 39.28 5.16999C47.6667 2.22333 57.2433 0.749996 68.01 0.749996C77.19 0.749996 85.5767 1.88333 93.17 4.14999C100.877 6.30333 107.45 9.53333 112.89 13.84C118.443 18.1467 122.693 23.4733 125.64 29.82C128.7 36.0533 130.23 43.1933 130.23 51.24L95.72 51.58C95.38 48.6333 94.4733 45.97 93 43.59C91.64 41.0967 89.77 38.9433 87.39 37.13C85.1233 35.2033 82.4033 33.73 79.23 32.71C76.0567 31.69 72.5433 31.18 68.69 31.18C63.59 31.18 59 32.0867 54.92 33.9C50.84 35.7133 47.3833 38.15 44.55 41.21C41.7167 44.27 39.5067 47.7833 37.92 51.75C36.4467 55.7167 35.71 59.91 35.71 64.33C35.71 68.6367 36.4467 72.7733 37.92 76.74C39.5067 80.7067 41.7167 84.22 44.55 87.28C47.3833 90.2267 50.84 92.6067 54.92 94.42C59 96.2333 63.59 97.14 68.69 97.14C74.2433 97.14 79.3433 96.12 83.99 94.08C88.75 92.04 92.15 89.0933 94.19 85.24H63.42V61.95H131.08ZM198.598 4.66H232.938L291.418 124H251.978L244.158 106.83H185.848L178.028 124H140.288L198.598 4.66ZM199.618 77.08H230.558L215.258 43.59L199.618 77.08ZM407.558 94.08V124H301.308V4.66H336.158V94.08H407.558ZM472.192 4.66H506.532L565.012 124H525.572L517.752 106.83H459.442L451.622 124H413.882L472.192 4.66ZM473.212 77.08H504.152L488.852 43.59L473.212 77.08ZM612.424 4.66L637.584 37.3L662.914 4.66H704.904L658.494 64.33L704.904 124H662.914L637.584 91.36L612.424 124H570.434L616.674 64.33L570.434 4.66H612.424ZM750.047 4.66L774.527 43.25L799.347 4.66H840.997L792.037 71.64V124H757.187V71.64L708.227 4.66H750.047ZM897.471 4.66H955.611C962.184 4.66 968.247 5.39666 973.801 6.87C979.467 8.34333 984.341 10.5533 988.421 13.5C992.501 16.3333 995.674 19.8467 997.941 24.04C1000.32 28.12 1001.51 32.88 1001.51 38.32C1001.51 45.5733 1000.15 51.41 997.431 55.83C994.711 60.25 990.801 63.7067 985.701 66.2C992.387 68.58 997.034 71.98 999.641 76.4C1002.25 80.82 1003.55 86.0333 1003.55 92.04C1003.55 98.2733 1002.36 103.43 999.981 107.51C997.601 111.59 994.427 114.877 990.461 117.37C986.494 119.75 981.904 121.45 976.691 122.47C971.591 123.49 966.321 124 960.881 124H897.471V4.66ZM932.321 52.26H951.871C957.424 52.26 961.447 51.6933 963.941 50.56C966.547 49.4267 967.851 46.99 967.851 43.25C967.851 39.6233 966.491 37.2433 963.771 36.11C961.164 34.9767 957.537 34.41 952.891 34.41H932.321V52.26ZM932.321 94.08H944.391C949.491 94.08 953.684 94.0233 956.971 93.91C960.257 93.6833 962.864 93.2867 964.791 92.72C966.717 92.1533 968.021 91.36 968.701 90.34C969.494 89.2067 969.891 87.7333 969.891 85.92C969.891 84.22 969.551 82.86 968.871 81.84C968.191 80.82 967.001 80.0267 965.301 79.46C963.601 78.8933 961.334 78.5533 958.501 78.44C955.667 78.2133 952.041 78.1 947.621 78.1H932.321V94.08ZM1048.99 4.66V52.77C1048.99 57.9833 1049.1 63.2533 1049.33 68.58C1049.67 73.7933 1050.58 78.5533 1052.05 82.86C1053.64 87.0533 1056.07 90.51 1059.36 93.23C1062.65 95.8367 1067.29 97.14 1073.3 97.14C1079.76 97.14 1084.75 95.8367 1088.26 93.23C1091.89 90.6233 1094.55 87.2233 1096.25 83.03C1097.95 78.8367 1098.97 74.19 1099.31 69.09C1099.65 63.8767 1099.82 58.72 1099.82 53.62V4.66H1134.67V60.08C1134.67 69.8267 1133.82 78.78 1132.12 86.94C1130.42 95.1 1127.25 102.183 1122.6 108.19C1118.07 114.083 1111.83 118.673 1103.9 121.96C1095.97 125.247 1085.77 126.89 1073.3 126.89C1060.72 126.89 1050.58 125.247 1042.87 121.96C1035.16 118.56 1029.16 113.913 1024.85 108.02C1020.66 102.013 1017.82 94.93 1016.35 86.77C1014.88 78.61 1014.14 69.7133 1014.14 60.08V4.66H1048.99ZM1149.32 4.49H1194.88C1207.68 4.49 1218.56 5.79333 1227.52 8.4C1236.58 11.0067 1243.95 14.86 1249.62 19.96C1255.4 25.06 1259.59 31.35 1262.2 38.83C1264.92 46.1967 1266.28 54.6967 1266.28 64.33C1266.28 73.9633 1264.92 82.52 1262.2 90C1259.59 97.3667 1255.4 103.6 1249.62 108.7C1243.95 113.687 1236.58 117.483 1227.52 120.09C1218.56 122.697 1207.68 124 1194.88 124H1149.32V4.49ZM1184.17 94.08H1191.99C1199.35 94.08 1205.64 93.6833 1210.86 92.89C1216.07 91.9833 1220.32 90.4533 1223.61 88.3C1226.89 86.0333 1229.27 82.9733 1230.75 79.12C1232.33 75.2667 1233.13 70.3933 1233.13 64.5C1233.13 58.72 1232.33 53.9033 1230.75 50.05C1229.27 46.0833 1226.89 42.9667 1223.61 40.7C1220.32 38.32 1216.07 36.6767 1210.86 35.77C1205.64 34.75 1199.35 34.24 1191.99 34.24H1184.17V94.08ZM1307.68 79.8C1307.91 82.0667 1308.36 84.2767 1309.04 86.43C1309.72 88.47 1310.8 90.34 1312.27 92.04C1313.75 93.6267 1315.67 94.93 1318.05 95.95C1320.55 96.97 1323.66 97.48 1327.4 97.48C1332.84 97.48 1336.7 96.7433 1338.96 95.27C1341.23 93.7967 1342.36 91.9267 1342.36 89.66C1342.36 88.1867 1341.8 86.94 1340.66 85.92C1339.53 84.9 1338 84.05 1336.07 83.37C1334.26 82.5767 1332.05 81.8967 1329.44 81.33C1326.95 80.65 1324.23 79.97 1321.28 79.29C1316.41 78.27 1311.31 77.0233 1305.98 75.55C1300.77 74.0767 1295.95 72.0367 1291.53 69.43C1287.23 66.71 1283.66 63.14 1280.82 58.72C1277.99 54.3 1276.57 48.5767 1276.57 41.55C1276.57 34.8633 1277.88 28.97 1280.48 23.87C1283.09 18.77 1286.6 14.52 1291.02 11.12C1295.56 7.72 1300.88 5.17 1307 3.46999C1313.12 1.76999 1319.64 0.919994 1326.55 0.919994C1343.67 0.919994 1356.36 5.16999 1364.63 13.67C1373.02 22.17 1377.44 34.1267 1377.89 49.54H1344.4C1344.4 47.6133 1344.18 45.5733 1343.72 43.42C1343.27 41.2667 1342.36 39.2833 1341 37.47C1339.76 35.5433 1337.94 33.9567 1335.56 32.71C1333.3 31.4633 1330.29 30.84 1326.55 30.84C1321 30.84 1317.03 31.52 1314.65 32.88C1312.39 34.24 1311.25 35.8833 1311.25 37.81C1311.25 39.7367 1311.93 41.4367 1313.29 42.91C1314.65 44.27 1316.47 45.46 1318.73 46.48C1321 47.5 1323.61 48.4067 1326.55 49.2C1329.5 49.9933 1332.62 50.7867 1335.9 51.58C1340.89 52.7133 1345.88 54.0167 1350.86 55.49C1355.96 56.9633 1360.61 59.0033 1364.8 61.61C1369 64.2167 1372.4 67.56 1375 71.64C1377.61 75.72 1378.91 80.9333 1378.91 87.28C1378.91 94.6467 1377.5 100.88 1374.66 105.98C1371.94 111.08 1368.2 115.217 1363.44 118.39C1358.8 121.45 1353.36 123.66 1347.12 125.02C1340.89 126.493 1334.32 127.23 1327.4 127.23C1310.29 127.23 1297.14 123.207 1287.96 115.16C1278.9 107.113 1274.36 95.3267 1274.36 79.8H1307.68ZM1434.64 4.66H1486.66C1504.11 4.66 1517.43 8.06 1526.61 14.86C1535.9 21.5467 1540.55 31.5767 1540.55 44.95C1540.55 52.8833 1539.24 59.6267 1536.64 65.18C1534.14 70.62 1530.52 75.04 1525.76 78.44C1521.11 81.7267 1515.44 84.1067 1508.76 85.58C1502.18 87.0533 1494.82 87.79 1486.66 87.79H1469.49V124H1434.64V4.66ZM1469.49 58.04H1486.83C1489.43 58.04 1491.87 57.9267 1494.14 57.7C1496.52 57.4733 1498.61 56.9633 1500.43 56.17C1502.35 55.3767 1503.83 54.1867 1504.85 52.6C1505.98 51.0133 1506.55 48.8033 1506.55 45.97C1506.55 43.25 1506.09 41.1533 1505.19 39.68C1504.28 38.0933 1502.98 36.96 1501.28 36.28C1499.69 35.4867 1497.82 34.9767 1495.67 34.75C1493.63 34.5233 1491.42 34.41 1489.04 34.41H1469.49V58.04ZM1603.61 4.66C1614.27 4.66 1623.11 5.51 1630.13 7.20999C1637.16 8.90999 1642.71 11.46 1646.79 14.86C1650.99 18.1467 1653.88 22.2833 1655.46 27.27C1657.16 32.2567 1658.01 38.0933 1658.01 44.78C1658.01 52.26 1656.94 58.4933 1654.78 63.48C1652.63 68.4667 1649.17 72.5467 1644.41 75.72C1647.36 77.76 1649.74 80.0267 1651.55 82.52C1653.37 85.0133 1654.84 87.6767 1655.97 90.51C1657.11 93.3433 1657.84 96.29 1658.18 99.35C1658.64 102.297 1658.86 105.243 1658.86 108.19V124H1622.48V109.21C1622.48 103.997 1621.63 99.86 1619.93 96.8C1618.35 93.6267 1616.14 91.2467 1613.3 89.66C1610.47 88.0733 1607.13 87.0533 1603.27 86.6C1599.53 86.0333 1595.51 85.75 1591.2 85.75H1585.59V124H1550.74V4.66H1603.61ZM1598.17 56.85C1603.27 56.85 1607.52 56.7367 1610.92 56.51C1614.32 56.17 1617.04 55.6033 1619.08 54.81C1621.12 53.9033 1622.54 52.6567 1623.33 51.07C1624.24 49.4833 1624.69 47.3867 1624.69 44.78C1624.69 42.4 1624.18 40.53 1623.16 39.17C1622.26 37.6967 1620.9 36.62 1619.08 35.94C1617.27 35.26 1615.06 34.8633 1612.45 34.75C1609.96 34.5233 1607.07 34.41 1603.78 34.41H1585.59V56.85H1598.17ZM1737.04 127.91C1727.3 127.91 1718.34 126.38 1710.18 123.32C1702.14 120.26 1695.22 115.953 1689.44 110.4C1683.66 104.733 1679.13 98.0467 1675.84 90.34C1672.67 82.52 1671.08 73.9067 1671.08 64.5C1671.08 55.0933 1672.61 46.48 1675.67 38.66C1678.73 30.84 1683.1 24.1533 1688.76 18.6C1694.54 12.9333 1701.51 8.57 1709.67 5.51C1717.83 2.44999 1726.96 0.919994 1737.04 0.919994C1746 0.919994 1754.38 2.50666 1762.2 5.67999C1770.14 8.73999 1776.99 13.1033 1782.77 18.77C1788.67 24.3233 1793.26 31.01 1796.54 38.83C1799.94 46.5367 1801.64 55.0933 1801.64 64.5C1801.64 73.7933 1799.89 82.35 1796.37 90.17C1792.97 97.99 1788.33 104.677 1782.43 110.23C1776.65 115.783 1769.85 120.147 1762.03 123.32C1754.21 126.38 1745.88 127.91 1737.04 127.91ZM1737.04 97.82C1741.92 97.82 1746.22 96.9133 1749.96 95.1C1753.7 93.1733 1756.82 90.68 1759.31 87.62C1761.81 84.56 1763.68 81.0467 1764.92 77.08C1766.17 73 1766.79 68.8067 1766.79 64.5C1766.79 60.08 1766.17 55.8867 1764.92 51.92C1763.79 47.84 1761.98 44.27 1759.48 41.21C1756.99 38.15 1753.87 35.7133 1750.13 33.9C1746.51 31.9733 1742.14 31.01 1737.04 31.01C1731.83 31.01 1727.24 31.9167 1723.27 33.73C1719.31 35.5433 1716.02 38.0367 1713.41 41.21C1710.92 44.27 1708.99 47.84 1707.63 51.92C1706.39 55.8867 1705.76 60.08 1705.76 64.5C1705.76 68.92 1706.44 73.17 1707.8 77.25C1709.28 81.2167 1711.32 84.73 1713.92 87.79C1716.64 90.85 1719.93 93.2867 1723.78 95.1C1727.75 96.9133 1732.17 97.82 1737.04 97.82Z" fill="#191919"/>
<path d="M131.08 61.95H131.58V61.45H131.08V61.95ZM131.08 124V124.5H131.58V124H131.08ZM107.96 124H107.46V124.5H107.96V124ZM107.96 114.99H108.46V113.848L107.621 114.623L107.96 114.99ZM91.64 124.34L91.4819 123.866L91.4794 123.867L91.64 124.34ZM40.98 122.98L40.8086 123.45L40.8086 123.45L40.98 122.98ZM19.39 110.06L19.0434 110.42L19.0506 110.427L19.39 110.06ZM5.62 90L5.15905 90.1937L5.16008 90.1961L5.62 90ZM5.11 37.64L4.64349 37.4601L4.64212 37.4637L5.11 37.64ZM18.2 17.58L17.8573 17.2159L17.8537 17.2193L18.2 17.58ZM39.28 5.16999L39.442 5.64303L39.4457 5.64172L39.28 5.16999ZM93.17 4.14999L93.027 4.62918L93.0354 4.63155L93.17 4.14999ZM112.89 13.84L112.58 14.232L112.584 14.2351L112.89 13.84ZM125.64 29.82L125.186 30.0306L125.191 30.0403L125.64 29.82ZM130.23 51.24L130.235 51.74L130.73 51.7351V51.24H130.23ZM95.72 51.58L95.2233 51.6373L95.2749 52.0844L95.7249 52.08L95.72 51.58ZM93 43.59L92.5611 43.8294L92.5676 43.8415L92.5749 43.8532L93 43.59ZM87.39 37.13L87.0662 37.511L87.0764 37.5196L87.087 37.5277L87.39 37.13ZM79.23 32.71L79.383 32.234L79.383 32.234L79.23 32.71ZM54.92 33.9L54.7169 33.4431L54.7169 33.4431L54.92 33.9ZM44.55 41.21L44.9169 41.5497L44.9169 41.5497L44.55 41.21ZM37.92 51.75L37.4556 51.5642L37.4513 51.5759L37.92 51.75ZM37.92 76.74L37.4511 76.9141L37.4558 76.9257L37.92 76.74ZM44.55 87.28L44.1831 87.6198L44.1896 87.6266L44.55 87.28ZM83.99 94.08L83.793 93.6204L83.789 93.6222L83.99 94.08ZM94.19 85.24L94.6319 85.4739L95.0205 84.74H94.19V85.24ZM63.42 85.24H62.92V85.74H63.42V85.24ZM63.42 61.95V61.45H62.92V61.95H63.42ZM130.58 61.95V124H131.58V61.95H130.58ZM131.08 123.5H107.96V124.5H131.08V123.5ZM108.46 124V114.99H107.46V124H108.46ZM107.621 114.623C103.259 118.649 97.8835 121.732 91.4819 123.866L91.7981 124.814C98.3165 122.642 103.821 119.491 108.299 115.357L107.621 114.623ZM91.4794 123.867C85.198 125.998 77.6618 127.07 68.86 127.07V128.07C77.7383 128.07 85.3887 126.989 91.8006 124.813L91.4794 123.867ZM68.86 127.07C58.7102 127.07 49.4759 125.548 41.1514 122.51L40.8086 123.45C49.2574 126.532 58.6098 128.07 68.86 128.07V127.07ZM41.1514 122.51C32.8213 119.471 25.6832 115.197 19.7294 109.693L19.0506 110.427C25.1102 116.029 32.3654 120.369 40.8086 123.45L41.1514 122.51ZM19.7366 109.7C13.8929 104.081 9.34089 97.4503 6.07992 89.8039L5.16008 90.1961C8.47244 97.9631 13.1005 104.706 19.0434 110.42L19.7366 109.7ZM6.08094 89.8063C2.82242 82.0532 1.19 73.5632 1.19 64.33H0.190001C0.190001 73.6835 1.84424 82.3068 5.15906 90.1937L6.08094 89.8063ZM1.19 64.33C1.19 54.4055 2.65612 45.5702 5.57789 37.8163L4.64212 37.4637C1.67054 45.3498 0.190001 54.3078 0.190001 64.33H1.19ZM5.5765 37.8199C8.61235 29.9492 12.9367 23.3259 18.5463 17.9407L17.8537 17.2193C12.13 22.7141 7.72765 29.4641 4.6435 37.4601L5.5765 37.8199ZM18.5427 17.9441C24.2658 12.5576 31.2291 8.45568 39.442 5.64302L39.118 4.69696C30.7843 7.55098 23.6942 11.7224 17.8573 17.2159L18.5427 17.9441ZM39.4457 5.64172C47.7693 2.71725 57.2882 1.25 68.01 1.25V0.249996C57.1984 0.249996 47.5641 1.72941 39.1143 4.69826L39.4457 5.64172ZM68.01 1.25C77.1491 1.25 85.4867 2.37828 93.027 4.6291L93.313 3.67088C85.6666 1.38837 77.2309 0.249996 68.01 0.249996V1.25ZM93.0354 4.63155C100.688 6.76972 107.199 9.9724 112.58 14.232L113.2 13.448C107.701 9.09425 101.065 5.83693 93.3046 3.66844L93.0354 4.63155ZM112.584 14.2351C118.074 18.4931 122.274 23.7566 125.187 30.0306L126.094 29.6094C123.113 23.1901 118.813 17.8002 113.196 13.4449L112.584 14.2351ZM125.191 30.0403C128.213 36.195 129.73 43.2576 129.73 51.24H130.73C130.73 43.1291 129.187 35.9117 126.089 29.5997L125.191 30.0403ZM130.225 50.74L95.7151 51.08L95.7249 52.08L130.235 51.74L130.225 50.74ZM96.2167 51.5227C95.8688 48.5074 94.9395 45.773 93.4251 43.3268L92.5749 43.8532C94.0072 46.1669 94.8912 48.7592 95.2233 51.6373L96.2167 51.5227ZM93.439 43.3506C92.0435 40.7922 90.1259 38.5859 87.693 36.7323L87.087 37.5277C89.4141 39.3008 91.2365 41.4011 92.5611 43.8294L93.439 43.3506ZM87.7138 36.749C85.3913 34.7749 82.6114 33.2717 79.383 32.234L79.077 33.186C82.1952 34.1883 84.8553 35.6318 87.0662 37.511L87.7138 36.749ZM79.383 32.234C76.1532 31.1958 72.5873 30.68 68.69 30.68V31.68C72.4993 31.68 75.9601 32.1842 79.077 33.186L79.383 32.234ZM68.69 30.68C63.53 30.68 58.8693 31.5976 54.7169 33.4431L55.1231 34.3569C59.1307 32.5758 63.65 31.68 68.69 31.68V30.68ZM54.7169 33.4431C50.5794 35.282 47.0657 37.7571 44.1831 40.8703L44.9169 41.5497C47.7009 38.5429 51.1006 36.1447 55.1231 34.3569L54.7169 33.4431ZM44.1831 40.8703C41.3072 43.9763 39.0646 47.5422 37.4558 51.5643L38.3842 51.9357C39.9487 48.0245 42.1262 44.5637 44.9169 41.5497L44.1831 40.8703ZM37.4513 51.5759C35.9564 55.6007 35.21 59.8533 35.21 64.33H36.21C36.21 59.9667 36.937 55.8326 38.3887 51.9241L37.4513 51.5759ZM35.21 64.33C35.21 68.695 35.9569 72.8907 37.4513 76.9141L38.3887 76.5659C36.9364 72.6559 36.21 68.5783 36.21 64.33H35.21ZM37.4558 76.9257C39.0646 80.9478 41.3072 84.5137 44.1831 87.6197L44.9169 86.9403C42.1262 83.9263 39.9487 80.4655 38.3842 76.5543L37.4558 76.9257ZM44.1896 87.6266C47.0717 90.624 50.5833 93.0397 54.7169 94.8769L55.1231 93.9631C51.0967 92.1736 47.695 89.8294 44.9104 86.9334L44.1896 87.6266ZM54.7169 94.8769C58.8693 96.7224 63.53 97.64 68.69 97.64V96.64C63.65 96.64 59.1307 95.7442 55.1231 93.9631L54.7169 94.8769ZM68.69 97.64C74.306 97.64 79.4752 96.6082 84.191 94.5378L83.789 93.6222C79.2115 95.6318 74.1807 96.64 68.69 96.64V97.64ZM84.187 94.5396C89.0315 92.4634 92.5288 89.4464 94.6319 85.4739L93.7481 85.0061C91.7712 88.7403 88.4686 91.6166 83.793 93.6204L84.187 94.5396ZM94.19 84.74H63.42V85.74H94.19V84.74ZM63.92 85.24V61.95H62.92V85.24H63.92ZM63.42 62.45H131.08V61.45H63.42V62.45ZM198.598 4.66V4.16H198.286L198.149 4.44049L198.598 4.66ZM232.938 4.66L233.387 4.43998L233.25 4.16H232.938V4.66ZM291.418 124V124.5H292.22L291.867 123.78L291.418 124ZM251.978 124L251.523 124.207L251.656 124.5H251.978V124ZM244.158 106.83L244.613 106.623L244.48 106.33H244.158V106.83ZM185.848 106.83V106.33H185.526L185.393 106.623L185.848 106.83ZM178.028 124V124.5H178.35L178.483 124.207L178.028 124ZM140.288 124L139.839 123.78L139.487 124.5H140.288V124ZM199.618 77.08L199.165 76.8684L198.833 77.58H199.618V77.08ZM230.558 77.08V77.58H231.336L231.013 76.8722L230.558 77.08ZM215.258 43.59L215.713 43.3822L215.263 42.3977L214.805 43.3784L215.258 43.59ZM198.598 5.16H232.938V4.16H198.598V5.16ZM232.489 4.88001L290.969 124.22L291.867 123.78L233.387 4.43998L232.489 4.88001ZM291.418 123.5H251.978V124.5H291.418V123.5ZM252.433 123.793L244.613 106.623L243.703 107.037L251.523 124.207L252.433 123.793ZM244.158 106.33H185.848V107.33H244.158V106.33ZM185.393 106.623L177.573 123.793L178.483 124.207L186.303 107.037L185.393 106.623ZM178.028 123.5H140.288V124.5H178.028V123.5ZM140.737 124.22L199.047 4.8795L198.149 4.44049L139.839 123.78L140.737 124.22ZM199.618 77.58H230.558V76.58H199.618V77.58ZM231.013 76.8722L215.713 43.3822L214.803 43.7978L230.103 77.2878L231.013 76.8722ZM214.805 43.3784L199.165 76.8684L200.071 77.2916L215.711 43.8016L214.805 43.3784ZM407.558 94.08H408.058V93.58H407.558V94.08ZM407.558 124V124.5H408.058V124H407.558ZM301.308 124H300.808V124.5H301.308V124ZM301.308 4.66V4.16H300.808V4.66H301.308ZM336.158 4.66H336.658V4.16H336.158V4.66ZM336.158 94.08H335.658V94.58H336.158V94.08ZM407.058 94.08V124H408.058V94.08H407.058ZM407.558 123.5H301.308V124.5H407.558V123.5ZM301.808 124V4.66H300.808V124H301.808ZM301.308 5.16H336.158V4.16H301.308V5.16ZM335.658 4.66V94.08H336.658V4.66H335.658ZM336.158 94.58H407.558V93.58H336.158V94.58ZM472.192 4.66V4.16H471.879L471.742 4.44049L472.192 4.66ZM506.532 4.66L506.981 4.43998L506.843 4.16H506.532V4.66ZM565.012 124V124.5H565.813L565.461 123.78L565.012 124ZM525.572 124L525.117 124.207L525.25 124.5H525.572V124ZM517.752 106.83L518.207 106.623L518.073 106.33H517.752V106.83ZM459.442 106.83V106.33H459.12L458.987 106.623L459.442 106.83ZM451.622 124V124.5H451.943L452.077 124.207L451.622 124ZM413.882 124L413.432 123.78L413.081 124.5H413.882V124ZM473.212 77.08L472.759 76.8684L472.426 77.58H473.212V77.08ZM504.152 77.08V77.58H504.93L504.606 76.8722L504.152 77.08ZM488.852 43.59L489.306 43.3822L488.857 42.3977L488.399 43.3784L488.852 43.59ZM472.192 5.16H506.532V4.16H472.192V5.16ZM506.083 4.88001L564.563 124.22L565.461 123.78L506.981 4.43998L506.083 4.88001ZM565.012 123.5H525.572V124.5H565.012V123.5ZM526.027 123.793L518.207 106.623L517.297 107.037L525.117 124.207L526.027 123.793ZM517.752 106.33H459.442V107.33H517.752V106.33ZM458.987 106.623L451.167 123.793L452.077 124.207L459.897 107.037L458.987 106.623ZM451.622 123.5H413.882V124.5H451.622V123.5ZM414.331 124.22L472.641 4.8795L471.742 4.44049L413.432 123.78L414.331 124.22ZM473.212 77.58H504.152V76.58H473.212V77.58ZM504.606 76.8722L489.306 43.3822L488.397 43.7978L503.697 77.2878L504.606 76.8722ZM488.399 43.3784L472.759 76.8684L473.665 77.2916L489.305 43.8016L488.399 43.3784ZM612.424 4.66L612.82 4.35474L612.67 4.16H612.424V4.66ZM637.584 37.3L637.188 37.6052L637.583 38.1173L637.979 37.6065L637.584 37.3ZM662.914 4.66V4.16H662.67L662.519 4.35345L662.914 4.66ZM704.904 4.66L705.299 4.96697L705.927 4.16H704.904V4.66ZM658.494 64.33L658.1 64.023L657.861 64.33L658.1 64.637L658.494 64.33ZM704.904 124V124.5H705.927L705.299 123.693L704.904 124ZM662.914 124L662.519 124.307L662.67 124.5H662.914V124ZM637.584 91.36L637.979 91.0535L637.583 90.5427L637.188 91.0547L637.584 91.36ZM612.424 124V124.5H612.67L612.82 124.305L612.424 124ZM570.434 124L570.039 123.694L569.414 124.5H570.434V124ZM616.674 64.33L617.07 64.6363L617.307 64.33L617.07 64.0237L616.674 64.33ZM570.434 4.66V4.16H569.414L570.039 4.96626L570.434 4.66ZM612.028 4.96525L637.188 37.6052L637.98 36.9947L612.82 4.35474L612.028 4.96525ZM637.979 37.6065L663.309 4.96654L662.519 4.35345L637.189 36.9934L637.979 37.6065ZM662.914 5.16H704.904V4.16H662.914V5.16ZM704.51 4.35303L658.1 64.023L658.889 64.637L705.299 4.96697L704.51 4.35303ZM658.1 64.637L704.51 124.307L705.299 123.693L658.889 64.023L658.1 64.637ZM704.904 123.5H662.914V124.5H704.904V123.5ZM663.309 123.693L637.979 91.0535L637.189 91.6665L662.519 124.307L663.309 123.693ZM637.188 91.0547L612.028 123.695L612.82 124.305L637.98 91.6653L637.188 91.0547ZM612.424 123.5H570.434V124.5H612.424V123.5ZM570.83 124.306L617.07 64.6363L616.279 64.0237L570.039 123.694L570.83 124.306ZM617.07 64.0237L570.83 4.35373L570.039 4.96626L616.279 64.6363L617.07 64.0237ZM570.434 5.16H612.424V4.16H570.434V5.16ZM750.047 4.66L750.47 4.39216L750.322 4.16H750.047V4.66ZM774.527 43.25L774.105 43.5178L774.524 44.1788L774.948 43.5205L774.527 43.25ZM799.347 4.66V4.16H799.074L798.927 4.38952L799.347 4.66ZM840.997 4.66L841.401 4.95506L841.982 4.16H840.997V4.66ZM792.037 71.64L791.634 71.3449L791.537 71.4767V71.64H792.037ZM792.037 124V124.5H792.537V124H792.037ZM757.187 124H756.687V124.5H757.187V124ZM757.187 71.64H757.687V71.4767L757.591 71.3449L757.187 71.64ZM708.227 4.66V4.16H707.243L707.824 4.95506L708.227 4.66ZM749.625 4.92783L774.105 43.5178L774.95 42.9822L750.47 4.39216L749.625 4.92783ZM774.948 43.5205L799.768 4.93047L798.927 4.38952L774.107 42.9795L774.948 43.5205ZM799.347 5.16H840.997V4.16H799.347V5.16ZM840.594 4.36494L791.634 71.3449L792.441 71.9351L841.401 4.95506L840.594 4.36494ZM791.537 71.64V124H792.537V71.64H791.537ZM792.037 123.5H757.187V124.5H792.037V123.5ZM757.687 124V71.64H756.687V124H757.687ZM757.591 71.3449L708.631 4.36494L707.824 4.95506L756.784 71.9351L757.591 71.3449ZM708.227 5.16H750.047V4.16H708.227V5.16ZM897.471 4.66V4.16H896.971V4.66H897.471ZM973.801 6.87L973.672 7.35328L973.675 7.35391L973.801 6.87ZM988.421 13.5L988.128 13.9054L988.135 13.9107L988.421 13.5ZM997.941 24.04L997.501 24.2778L997.505 24.2849L997.509 24.2919L997.941 24.04ZM985.701 66.2L985.481 65.7508L984.414 66.2726L985.533 66.6711L985.701 66.2ZM999.641 76.4L999.21 76.654L999.21 76.654L999.641 76.4ZM999.981 107.51L999.549 107.258L999.549 107.258L999.981 107.51ZM990.461 117.37L990.718 117.799L990.727 117.793L990.461 117.37ZM976.691 122.47L976.595 121.979L976.592 121.98L976.691 122.47ZM897.471 124H896.971V124.5H897.471V124ZM932.321 52.26H931.821V52.76H932.321V52.26ZM963.941 50.56L963.741 50.1014L963.734 50.1048L963.941 50.56ZM963.771 36.11L963.571 36.5686L963.578 36.5715L963.771 36.11ZM932.321 34.41V33.91H931.821V34.41H932.321ZM932.321 94.08H931.821V94.58H932.321V94.08ZM956.971 93.91L956.988 94.4097L956.996 94.4094L957.005 94.4088L956.971 93.91ZM964.791 92.72L964.649 92.2403L964.649 92.2403L964.791 92.72ZM968.701 90.34L968.291 90.0532L968.285 90.0626L968.701 90.34ZM968.871 81.84L969.287 81.5626L969.287 81.5626L968.871 81.84ZM965.301 79.46L965.459 78.9857L965.459 78.9857L965.301 79.46ZM958.501 78.44L958.461 78.9384L958.471 78.9392L958.481 78.9396L958.501 78.44ZM932.321 78.1V77.6H931.821V78.1H932.321ZM897.471 5.16H955.611V4.16H897.471V5.16ZM955.611 5.16C962.147 5.16 968.166 5.8925 973.672 7.35328L973.929 6.38672C968.328 4.90082 962.221 4.16 955.611 4.16V5.16ZM973.675 7.35391C979.291 8.81414 984.106 11.0004 988.128 13.9053L988.713 13.0947C984.576 10.1062 979.643 7.87251 973.926 6.38609L973.675 7.35391ZM988.135 13.9107C992.154 16.7012 995.273 20.1563 997.501 24.2778L998.38 23.8022C996.075 19.537 992.847 15.9654 988.706 13.0893L988.135 13.9107ZM997.509 24.2919C999.838 28.2845 1001.01 32.9549 1001.01 38.32H1002.01C1002.01 32.8051 1000.8 27.9555 998.372 23.7881L997.509 24.2919ZM1001.01 38.32C1001.01 45.516 999.661 51.2521 997.005 55.5679L997.856 56.092C1000.64 51.5679 1002.01 45.6307 1002.01 38.32H1001.01ZM997.005 55.5679C994.339 59.8998 990.504 63.295 985.481 65.7508L985.92 66.6492C991.097 64.1183 995.082 60.6002 997.856 56.092L997.005 55.5679ZM985.533 66.6711C992.151 69.0267 996.682 72.3676 999.21 76.654L1000.07 76.146C997.386 71.5924 992.623 68.1333 985.868 65.7289L985.533 66.6711ZM999.21 76.654C1001.76 80.9848 1003.05 86.1073 1003.05 92.04H1004.05C1004.05 85.9594 1002.73 80.6552 1000.07 76.146L999.21 76.654ZM1003.05 92.04C1003.05 98.2123 1001.87 103.275 999.549 107.258L1000.41 107.762C1002.85 103.585 1004.05 98.3344 1004.05 92.04H1003.05ZM999.549 107.258C997.209 111.269 994.092 114.497 990.194 116.947L990.727 117.793C994.762 115.257 997.992 111.911 1000.41 107.762L999.549 107.258ZM990.203 116.941C986.293 119.287 981.759 120.969 976.595 121.979L976.787 122.961C982.048 121.931 986.695 120.213 990.718 117.799L990.203 116.941ZM976.592 121.98C971.526 122.993 966.289 123.5 960.881 123.5V124.5C966.352 124.5 971.655 123.987 976.789 122.96L976.592 121.98ZM960.881 123.5H897.471V124.5H960.881V123.5ZM897.971 124V4.66H896.971V124H897.971ZM932.321 52.76H951.871V51.76H932.321V52.76ZM951.871 52.76C957.437 52.76 961.551 52.1952 964.147 51.0152L963.734 50.1048C961.343 51.1914 957.411 51.76 951.871 51.76V52.76ZM964.14 51.0185C965.543 50.4083 966.608 49.439 967.314 48.1183C968.016 46.8064 968.351 45.1745 968.351 43.25H967.351C967.351 45.0655 967.034 46.522 966.432 47.6467C965.835 48.7626 964.944 49.5783 963.741 50.1015L964.14 51.0185ZM968.351 43.25C968.351 41.3769 968 39.783 967.265 38.4969C966.526 37.2036 965.417 36.2542 963.963 35.6485L963.578 36.5715C964.844 37.0991 965.775 37.9064 966.396 38.9931C967.022 40.087 967.351 41.4965 967.351 43.25H968.351ZM963.97 35.6515C961.273 34.4788 957.568 33.91 952.891 33.91V34.91C957.507 34.91 961.055 35.4745 963.571 36.5685L963.97 35.6515ZM952.891 33.91H932.321V34.91H952.891V33.91ZM931.821 34.41V52.26H932.821V34.41H931.821ZM932.321 94.58H944.391V93.58H932.321V94.58ZM944.391 94.58C949.494 94.58 953.693 94.5233 956.988 94.4097L956.953 93.4103C953.675 93.5234 949.488 93.58 944.391 93.58V94.58ZM957.005 94.4088C960.308 94.181 962.955 93.781 964.932 93.1997L964.649 92.2403C962.773 92.7924 960.206 93.1856 956.936 93.4112L957.005 94.4088ZM964.932 93.1997C966.904 92.6195 968.341 91.7804 969.117 90.6173L968.285 90.0626C967.7 90.9396 966.53 91.6871 964.649 92.2403L964.932 93.1997ZM969.11 90.6267C969.978 89.3867 970.391 87.8043 970.391 85.92H969.391C969.391 87.6623 969.01 89.0266 968.291 90.0533L969.11 90.6267ZM970.391 85.92C970.391 84.1582 970.039 82.6909 969.287 81.5626L968.455 82.1173C969.062 83.0291 969.391 84.2818 969.391 85.92H970.391ZM969.287 81.5626C968.522 80.416 967.217 79.5718 965.459 78.9857L965.142 79.9343C966.784 80.4815 967.859 81.224 968.455 82.1173L969.287 81.5626ZM965.459 78.9857C963.696 78.3981 961.377 78.0547 958.521 77.9404L958.481 78.9396C961.291 79.052 963.505 79.3886 965.142 79.9343L965.459 78.9857ZM958.54 77.9416C955.689 77.7135 952.047 77.6 947.621 77.6V78.6C952.034 78.6 955.646 78.7132 958.461 78.9384L958.54 77.9416ZM947.621 77.6H932.321V78.6H947.621V77.6ZM931.821 78.1V94.08H932.821V78.1H931.821ZM1048.99 4.66H1049.49V4.16H1048.99V4.66ZM1049.33 68.58L1048.83 68.6013L1048.83 68.6125L1049.33 68.58ZM1052.05 82.86L1051.58 83.0218L1051.58 83.0294L1051.58 83.0369L1052.05 82.86ZM1059.36 93.23L1059.04 93.6153L1059.05 93.6217L1059.36 93.23ZM1088.26 93.23L1087.97 92.8239L1087.96 92.8284L1088.26 93.23ZM1096.25 83.03L1096.71 83.2179L1096.71 83.2179L1096.25 83.03ZM1099.31 69.09L1099.81 69.1233L1099.81 69.1225L1099.31 69.09ZM1099.82 4.66V4.16H1099.32V4.66H1099.82ZM1134.67 4.66H1135.17V4.16H1134.67V4.66ZM1132.12 86.94L1132.61 87.042L1132.61 87.042L1132.12 86.94ZM1122.6 108.19L1122.2 107.884L1122.2 107.885L1122.6 108.19ZM1103.9 121.96L1104.09 122.422L1104.09 122.422L1103.9 121.96ZM1042.87 121.96L1042.67 122.417L1042.67 122.42L1042.87 121.96ZM1024.85 108.02L1024.44 108.306L1024.45 108.315L1024.85 108.02ZM1016.35 86.77L1016.84 86.6812L1016.84 86.6812L1016.35 86.77ZM1014.14 4.66V4.16H1013.64V4.66H1014.14ZM1048.49 4.66V52.77H1049.49V4.66H1048.49ZM1048.49 52.77C1048.49 57.9906 1048.6 63.2677 1048.83 68.6013L1049.83 68.5587C1049.6 63.239 1049.49 57.9761 1049.49 52.77H1048.49ZM1048.83 68.6125C1049.17 73.8636 1050.09 78.6678 1051.58 83.0218L1052.52 82.6982C1051.07 78.4389 1050.17 73.7231 1049.83 68.5475L1048.83 68.6125ZM1051.58 83.0369C1053.2 87.3071 1055.68 90.837 1059.04 93.6152L1059.68 92.8448C1056.46 90.183 1054.07 86.7995 1052.52 82.6831L1051.58 83.0369ZM1059.05 93.6217C1062.46 96.3232 1067.23 97.64 1073.3 97.64V96.64C1067.36 96.64 1062.84 95.3501 1059.67 92.8382L1059.05 93.6217ZM1073.3 97.64C1079.82 97.64 1084.93 96.3261 1088.56 93.6315L1087.96 92.8284C1084.57 95.3472 1079.7 96.64 1073.3 96.64V97.64ZM1088.55 93.636C1092.26 90.9735 1094.98 87.4974 1096.71 83.2179L1095.79 82.8421C1094.12 86.9492 1091.52 90.2732 1087.97 92.824L1088.55 93.636ZM1096.71 83.2179C1098.44 78.9693 1099.47 74.2696 1099.81 69.1233L1098.81 69.0567C1098.47 74.1104 1097.46 78.7041 1095.79 82.8421L1096.71 83.2179ZM1099.81 69.1225C1100.15 63.8986 1100.32 58.7311 1100.32 53.62H1099.32C1099.32 58.7089 1099.15 63.8547 1098.81 69.0575L1099.81 69.1225ZM1100.32 53.62V4.66H1099.32V53.62H1100.32ZM1099.82 5.16H1134.67V4.16H1099.82V5.16ZM1134.17 4.66V60.08H1135.17V4.66H1134.17ZM1134.17 60.08C1134.17 69.798 1133.32 78.7166 1131.63 86.838L1132.61 87.042C1134.32 78.8434 1135.17 69.8553 1135.17 60.08H1134.17ZM1131.63 86.838C1129.94 94.9311 1126.8 101.943 1122.2 107.884L1123 108.496C1127.69 102.424 1130.9 95.2689 1132.61 87.042L1131.63 86.838ZM1122.2 107.885C1117.73 113.699 1111.57 118.24 1103.71 121.498L1104.09 122.422C1112.09 119.107 1118.4 114.468 1123 108.495L1122.2 107.885ZM1103.71 121.498C1095.86 124.751 1085.73 126.39 1073.3 126.39V127.39C1085.8 127.39 1096.08 125.742 1104.09 122.422L1103.71 121.498ZM1073.3 126.39C1060.76 126.39 1050.69 124.75 1043.07 121.5L1042.67 122.42C1050.47 125.743 1060.68 127.39 1073.3 127.39V126.39ZM1043.07 121.503C1035.43 118.132 1029.5 113.537 1025.25 107.725L1024.45 108.315C1028.81 114.29 1034.89 118.988 1042.67 122.417L1043.07 121.503ZM1025.26 107.734C1021.11 101.794 1018.3 94.7796 1016.84 86.6812L1015.86 86.8588C1017.34 95.0804 1020.2 102.233 1024.44 108.306L1025.26 107.734ZM1016.84 86.6812C1015.37 78.5547 1014.64 69.6882 1014.64 60.08H1013.64C1013.64 69.7385 1014.38 78.6653 1015.86 86.8588L1016.84 86.6812ZM1014.64 60.08V4.66H1013.64V60.08H1014.64ZM1014.14 5.16H1048.99V4.16H1014.14V5.16ZM1149.32 4.49V3.99H1148.82V4.49H1149.32ZM1227.52 8.4L1227.38 8.88007L1227.38 8.88053L1227.52 8.4ZM1249.62 19.96L1249.28 20.3317L1249.29 20.3349L1249.62 19.96ZM1262.2 38.83L1261.72 38.9946L1261.73 39.0032L1262.2 38.83ZM1262.2 90L1261.73 89.8291L1261.72 89.8332L1262.2 90ZM1249.62 108.7L1249.95 109.075L1249.95 109.075L1249.62 108.7ZM1227.52 120.09L1227.38 119.609L1227.38 119.61L1227.52 120.09ZM1149.32 124H1148.82V124.5H1149.32V124ZM1184.17 94.08H1183.67V94.58H1184.17V94.08ZM1210.86 92.89L1210.93 93.3844L1210.94 93.3826L1210.86 92.89ZM1223.61 88.3L1223.88 88.7183L1223.89 88.7116L1223.61 88.3ZM1230.75 79.12L1230.28 78.9296L1230.28 78.9414L1230.75 79.12ZM1230.75 50.05L1230.28 50.2241L1230.28 50.2323L1230.28 50.2404L1230.75 50.05ZM1223.61 40.7L1223.31 41.1051L1223.32 41.1116L1223.61 40.7ZM1210.86 35.77L1210.76 36.2608L1210.77 36.2626L1210.86 35.77ZM1184.17 34.24V33.74H1183.67V34.24H1184.17ZM1149.32 4.99H1194.88V3.99H1149.32V4.99ZM1194.88 4.99C1207.65 4.99 1218.48 6.29051 1227.38 8.88007L1227.66 7.91993C1218.64 5.29615 1207.71 3.99 1194.88 3.99V4.99ZM1227.38 8.88053C1236.39 11.4711 1243.68 15.2929 1249.28 20.3316L1249.95 19.5883C1244.22 14.427 1236.78 10.5422 1227.65 7.91946L1227.38 8.88053ZM1249.29 20.3349C1255 25.3765 1259.14 31.5933 1261.72 38.9945L1262.67 38.6655C1260.03 31.1067 1255.79 24.7435 1249.95 19.5851L1249.29 20.3349ZM1261.73 39.0032C1264.42 46.3034 1265.78 54.7428 1265.78 64.33H1266.78C1266.78 54.6505 1265.41 46.0899 1262.67 38.6568L1261.73 39.0032ZM1265.78 64.33C1265.78 73.9169 1264.42 82.4141 1261.73 89.8291L1262.67 90.1709C1265.41 82.6259 1266.78 74.0097 1266.78 64.33H1265.78ZM1261.72 89.8332C1259.15 97.1208 1255 103.282 1249.29 108.325L1249.95 109.075C1255.79 103.918 1260.03 97.6125 1262.67 90.1668L1261.72 89.8332ZM1249.29 108.325C1243.69 113.252 1236.39 117.018 1227.38 119.609L1227.65 120.571C1236.77 117.948 1244.21 114.121 1249.95 109.075L1249.29 108.325ZM1227.38 119.61C1218.48 122.199 1207.65 123.5 1194.88 123.5V124.5C1207.71 124.5 1218.64 123.194 1227.66 120.57L1227.38 119.61ZM1194.88 123.5H1149.32V124.5H1194.88V123.5ZM1149.82 124V4.49H1148.82V124H1149.82ZM1184.17 94.58H1191.99V93.58H1184.17V94.58ZM1191.99 94.58C1199.37 94.58 1205.69 94.1826 1210.93 93.3843L1210.78 92.3957C1205.6 93.1841 1199.34 93.58 1191.99 93.58V94.58ZM1210.94 93.3826C1216.2 92.4681 1220.52 90.9195 1223.88 88.7182L1223.33 87.8818C1220.12 89.9872 1215.94 91.4986 1210.77 92.3974L1210.94 93.3826ZM1223.89 88.7116C1227.26 86.3856 1229.71 83.243 1231.21 79.2986L1230.28 78.9414C1228.84 82.7037 1226.52 85.6811 1223.32 87.8884L1223.89 88.7116ZM1231.21 79.3104C1232.83 75.3772 1233.63 70.4336 1233.63 64.5H1232.63C1232.63 70.3531 1231.84 75.1562 1230.28 78.9296L1231.21 79.3104ZM1233.63 64.5C1233.63 58.6782 1232.83 53.7919 1231.21 49.8596L1230.28 50.2404C1231.84 54.0148 1232.63 58.7618 1232.63 64.5H1233.63ZM1231.21 49.8759C1229.71 45.8191 1227.27 42.617 1223.89 40.2884L1223.32 41.1116C1226.52 43.3164 1228.84 46.3476 1230.28 50.2241L1231.21 49.8759ZM1223.9 40.295C1220.54 37.859 1216.21 36.1933 1210.94 35.2774L1210.77 36.2626C1215.93 37.16 1220.1 38.781 1223.31 41.105L1223.9 40.295ZM1210.95 35.2793C1205.7 34.2513 1199.37 33.74 1191.99 33.74V34.74C1199.33 34.74 1205.59 35.2487 1210.76 36.2607L1210.95 35.2793ZM1191.99 33.74H1184.17V34.74H1191.99V33.74ZM1183.67 34.24V94.08H1184.67V34.24H1183.67ZM1307.68 79.8L1308.18 79.7502L1308.13 79.3H1307.68V79.8ZM1309.04 86.43L1308.57 86.5806L1308.57 86.5881L1309.04 86.43ZM1312.27 92.04L1311.89 92.3675L1311.9 92.3739L1311.91 92.3802L1312.27 92.04ZM1318.05 95.95L1317.85 96.4096L1317.86 96.4128L1318.05 95.95ZM1338.96 95.27L1338.69 94.8508L1338.69 94.8508L1338.96 95.27ZM1340.66 85.92L1341 85.5484L1341 85.5484L1340.66 85.92ZM1336.07 83.37L1335.87 83.8281L1335.89 83.8354L1335.91 83.8415L1336.07 83.37ZM1329.44 81.33L1329.31 81.8124L1329.32 81.8158L1329.34 81.8186L1329.44 81.33ZM1321.28 79.29L1321.39 78.8027L1321.38 78.8006L1321.28 79.29ZM1305.98 75.55L1305.85 76.0312L1305.85 76.0319L1305.98 75.55ZM1291.53 69.43L1291.26 69.8527L1291.27 69.8568L1291.28 69.8607L1291.53 69.43ZM1280.82 58.72L1280.4 58.9898L1280.4 58.9898L1280.82 58.72ZM1280.48 23.87L1280.04 23.6424L1280.04 23.6424L1280.48 23.87ZM1291.02 11.12L1290.72 10.72L1290.72 10.7237L1291.02 11.12ZM1307 3.46999L1306.87 2.98823L1306.87 2.98823L1307 3.46999ZM1364.63 13.67L1364.27 14.0187L1364.28 14.0212L1364.63 13.67ZM1377.89 49.54V50.04H1378.41L1378.39 49.5253L1377.89 49.54ZM1344.4 49.54H1343.9V50.04H1344.4V49.54ZM1343.72 43.42L1344.21 43.317L1344.21 43.317L1343.72 43.42ZM1341 37.47L1340.58 37.7416L1340.59 37.7562L1340.6 37.77L1341 37.47ZM1335.56 32.71L1335.32 33.1482L1335.33 33.1529L1335.56 32.71ZM1314.65 32.88L1314.4 32.4458L1314.39 32.4513L1314.65 32.88ZM1313.29 42.91L1312.92 43.2491L1312.93 43.2565L1312.94 43.2635L1313.29 42.91ZM1335.9 51.58L1335.78 52.0661L1335.79 52.0676L1335.9 51.58ZM1350.86 55.49L1350.72 55.9695L1350.72 55.9704L1350.86 55.49ZM1364.8 61.61L1364.54 62.0346L1364.8 61.61ZM1375 71.64L1375.42 71.3708L1375.42 71.3708L1375 71.64ZM1374.66 105.98L1374.22 105.737L1374.22 105.745L1374.66 105.98ZM1363.44 118.39L1363.72 118.808L1363.72 118.806L1363.44 118.39ZM1347.12 125.02L1347.02 124.531L1347.01 124.533L1347.12 125.02ZM1287.96 115.16L1287.63 115.534L1287.63 115.536L1287.96 115.16ZM1274.36 79.8V79.3H1273.86V79.8H1274.36ZM1307.18 79.8497C1307.41 82.1503 1307.87 84.3941 1308.57 86.5806L1309.52 86.2794C1308.85 84.1592 1308.4 81.983 1308.18 79.7502L1307.18 79.8497ZM1308.57 86.5881C1309.27 88.6932 1310.38 90.6202 1311.89 92.3675L1312.65 91.7125C1311.22 90.0598 1310.17 88.2468 1309.52 86.2719L1308.57 86.5881ZM1311.91 92.3802C1313.43 94.0271 1315.42 95.3674 1317.85 96.4096L1318.25 95.4904C1315.92 94.4926 1314.06 93.2262 1312.64 91.6998L1311.91 92.3802ZM1317.86 96.4128C1320.43 97.4649 1323.62 97.98 1327.4 97.98V96.98C1323.7 96.98 1320.66 96.4751 1318.24 95.4872L1317.86 96.4128ZM1327.4 97.98C1332.86 97.98 1336.84 97.2465 1339.23 95.6892L1338.69 94.8508C1336.55 96.2401 1332.83 96.98 1327.4 96.98V97.98ZM1339.23 95.6892C1341.61 94.1442 1342.86 92.1304 1342.86 89.66H1341.86C1341.86 91.7229 1340.85 93.4491 1338.69 94.8508L1339.23 95.6892ZM1342.86 89.66C1342.86 88.0394 1342.23 86.6594 1341 85.5484L1340.33 86.2916C1341.36 87.2206 1341.86 88.3339 1341.86 89.66H1342.86ZM1341 85.5484C1339.8 84.4721 1338.21 83.5934 1336.24 82.8985L1335.91 83.8415C1337.79 84.5066 1339.26 85.3279 1340.33 86.2916L1341 85.5484ZM1336.27 82.9119C1334.42 82.1017 1332.18 81.4129 1329.55 80.8414L1329.34 81.8186C1331.92 82.3805 1334.1 83.0517 1335.87 83.8281L1336.27 82.9119ZM1329.57 80.8476C1327.07 80.1656 1324.35 79.484 1321.39 78.8028L1321.17 79.7772C1324.11 80.456 1326.82 81.1344 1329.31 81.8124L1329.57 80.8476ZM1321.38 78.8006C1316.52 77.783 1311.43 76.5389 1306.12 75.0681L1305.85 76.0319C1311.18 77.5078 1316.29 78.757 1321.18 79.7794L1321.38 78.8006ZM1306.12 75.0688C1300.94 73.6065 1296.17 71.583 1291.79 68.9993L1291.28 69.8607C1295.74 72.4904 1300.59 74.5468 1305.85 76.0312L1306.12 75.0688ZM1291.8 69.0073C1287.56 66.3276 1284.04 62.8105 1281.24 58.4502L1280.4 58.9898C1283.27 63.4695 1286.89 67.0924 1291.26 69.8527L1291.8 69.0073ZM1281.24 58.4502C1278.48 54.1337 1277.07 48.5126 1277.07 41.55H1276.07C1276.07 48.6408 1277.5 54.4663 1280.4 58.9898L1281.24 58.4502ZM1277.07 41.55C1277.07 34.9292 1278.36 29.1162 1280.93 24.0975L1280.04 23.6424C1277.39 28.8238 1276.07 34.7975 1276.07 41.55H1277.07ZM1280.93 24.0975C1283.5 19.0617 1286.97 14.8699 1291.33 11.5163L1290.72 10.7237C1286.24 14.1701 1282.68 18.4783 1280.04 23.6424L1280.93 24.0975ZM1291.32 11.52C1295.8 8.16161 1301.07 5.63709 1307.14 3.95175L1306.87 2.98823C1300.7 4.7029 1295.31 7.27839 1290.72 10.72L1291.32 11.52ZM1307.14 3.95175C1313.21 2.26487 1319.68 1.41999 1326.55 1.41999V0.419994C1319.6 0.419994 1313.04 1.27511 1306.87 2.98823L1307.14 3.95175ZM1326.55 1.41999C1343.59 1.41999 1356.13 5.65142 1364.27 14.0187L1364.99 13.3212C1356.59 4.68856 1343.74 0.419994 1326.55 0.419994V1.41999ZM1364.28 14.0212C1372.55 22.4074 1376.94 34.2296 1377.39 49.5547L1378.39 49.5253C1377.94 34.0237 1373.49 21.9326 1364.99 13.3188L1364.28 14.0212ZM1377.89 49.04H1344.4V50.04H1377.89V49.04ZM1344.9 49.54C1344.9 47.5742 1344.67 45.4995 1344.21 43.317L1343.23 43.523C1343.68 45.6471 1343.9 47.6524 1343.9 49.54H1344.9ZM1344.21 43.317C1343.74 41.0901 1342.8 39.0399 1341.4 37.17L1340.6 37.77C1341.92 39.5268 1342.79 41.4432 1343.23 43.523L1344.21 43.317ZM1341.42 37.1984C1340.12 35.1879 1338.24 33.5468 1335.79 32.2671L1335.33 33.1529C1337.65 34.3665 1339.39 35.8988 1340.58 37.7416L1341.42 37.1984ZM1335.8 32.2719C1333.44 30.9705 1330.34 30.34 1326.55 30.34V31.34C1330.24 31.34 1333.15 31.9561 1335.32 33.1481L1335.8 32.2719ZM1326.55 30.34C1320.98 30.34 1316.9 31.0172 1314.4 32.4459L1314.9 33.3141C1317.16 32.0228 1321.01 31.34 1326.55 31.34V30.34ZM1314.39 32.4513C1312.04 33.864 1310.75 35.6452 1310.75 37.81H1311.75C1311.75 36.1214 1312.73 34.616 1314.91 33.3087L1314.39 32.4513ZM1310.75 37.81C1310.75 39.8679 1311.48 41.6876 1312.92 43.2491L1313.66 42.5709C1312.38 41.1857 1311.75 39.6054 1311.75 37.81H1310.75ZM1312.94 43.2635C1314.35 44.6769 1316.22 45.898 1318.53 46.936L1318.94 46.024C1316.71 45.022 1314.95 43.8631 1313.65 42.5564L1312.94 43.2635ZM1318.53 46.936C1320.82 47.969 1323.46 48.884 1326.42 49.6828L1326.68 48.7172C1323.76 47.9293 1321.17 47.031 1318.94 46.024L1318.53 46.936ZM1326.42 49.6828C1329.37 50.4774 1332.49 51.2718 1335.78 52.066L1336.02 51.094C1332.74 50.3015 1329.62 49.5093 1326.68 48.7172L1326.42 49.6828ZM1335.79 52.0676C1340.77 53.1985 1345.74 54.4991 1350.72 55.9695L1351 55.0105C1346.01 53.5342 1341.01 52.2282 1336.01 51.0924L1335.79 52.0676ZM1350.72 55.9704C1355.78 57.4319 1360.39 59.454 1364.54 62.0346L1365.07 61.1854C1360.83 58.5527 1356.14 56.4948 1351 55.0096L1350.72 55.9704ZM1364.54 62.0346C1368.67 64.6027 1372.01 67.8934 1374.58 71.9092L1375.42 71.3708C1372.78 67.2266 1369.32 63.8306 1365.07 61.1854L1364.54 62.0346ZM1374.58 71.9092C1377.12 75.8874 1378.41 80.9996 1378.41 87.28H1379.41C1379.41 80.867 1378.09 75.5526 1375.42 71.3708L1374.58 71.9092ZM1378.41 87.28C1378.41 94.5836 1377.01 100.729 1374.22 105.737L1375.1 106.223C1377.98 101.031 1379.41 94.7097 1379.41 87.28H1378.41ZM1374.22 105.745C1371.54 110.773 1367.86 114.847 1363.16 117.974L1363.72 118.806C1368.55 115.586 1372.34 111.387 1375.1 106.215L1374.22 105.745ZM1363.17 117.972C1358.58 120.994 1353.2 123.183 1347.02 124.531L1347.23 125.509C1353.51 124.137 1359.01 121.906 1363.72 118.808L1363.17 117.972ZM1347.01 124.533C1340.81 125.997 1334.28 126.73 1327.4 126.73V127.73C1334.35 127.73 1340.96 126.99 1347.24 125.507L1347.01 124.533ZM1327.4 126.73C1310.36 126.73 1297.35 122.724 1288.29 114.784L1287.63 115.536C1296.93 123.69 1310.22 127.73 1327.4 127.73V126.73ZM1288.29 114.786C1279.36 106.859 1274.86 95.2266 1274.86 79.8H1273.86C1273.86 95.4267 1278.43 107.367 1287.63 115.534L1288.29 114.786ZM1274.36 80.3H1307.68V79.3H1274.36V80.3ZM1434.64 4.66V4.16H1434.14V4.66H1434.64ZM1526.61 14.86L1526.31 15.2618L1526.32 15.2659L1526.61 14.86ZM1536.64 65.18L1536.18 64.9675L1536.18 64.9717L1536.64 65.18ZM1525.76 78.44L1526.05 78.8482L1526.05 78.8469L1525.76 78.44ZM1508.76 85.58L1508.65 85.0917L1508.65 85.0921L1508.76 85.58ZM1469.49 87.79V87.29H1468.99V87.79H1469.49ZM1469.49 124V124.5H1469.99V124H1469.49ZM1434.64 124H1434.14V124.5H1434.64V124ZM1469.49 58.04H1468.99V58.54H1469.49V58.04ZM1494.14 57.7L1494.09 57.2022L1494.09 57.2025L1494.14 57.7ZM1500.43 56.17L1500.24 55.7075L1500.23 55.7119L1500.43 56.17ZM1504.85 52.6L1504.44 52.3094L1504.43 52.3193L1504.43 52.3296L1504.85 52.6ZM1505.19 39.68L1504.75 39.9281L1504.76 39.9351L1504.76 39.942L1505.19 39.68ZM1501.28 36.28L1501.05 36.7272L1501.07 36.7365L1501.09 36.7442L1501.28 36.28ZM1495.67 34.75L1495.61 35.2469L1495.62 35.2472L1495.67 34.75ZM1469.49 34.41V33.91H1468.99V34.41H1469.49ZM1434.64 5.16H1486.66V4.16H1434.64V5.16ZM1486.66 5.16C1504.06 5.16 1517.25 8.55129 1526.31 15.2618L1526.9 14.4582C1517.6 7.5687 1504.16 4.16 1486.66 4.16V5.16ZM1526.32 15.2659C1535.45 21.8419 1540.05 31.7066 1540.05 44.95H1541.05C1541.05 31.4467 1536.35 21.2515 1526.9 14.4541L1526.32 15.2659ZM1540.05 44.95C1540.05 52.8306 1538.75 59.4972 1536.18 64.9675L1537.09 65.3925C1539.74 59.7561 1541.05 52.9361 1541.05 44.95H1540.05ZM1536.18 64.9717C1533.72 70.3342 1530.15 74.6851 1525.47 78.0331L1526.05 78.8469C1530.88 75.3949 1534.56 70.9058 1537.09 65.3883L1536.18 64.9717ZM1525.47 78.0318C1520.89 81.273 1515.28 83.6299 1508.65 85.0917L1508.86 86.0683C1515.6 84.5835 1521.34 82.1804 1526.05 78.8482L1525.47 78.0318ZM1508.65 85.0921C1502.12 86.5559 1494.79 87.29 1486.66 87.29V88.29C1494.85 88.29 1502.25 87.5507 1508.87 86.0679L1508.65 85.0921ZM1486.66 87.29H1469.49V88.29H1486.66V87.29ZM1468.99 87.79V124H1469.99V87.79H1468.99ZM1469.49 123.5H1434.64V124.5H1469.49V123.5ZM1435.14 124V4.66H1434.14V124H1435.14ZM1469.49 58.54H1486.83V57.54H1469.49V58.54ZM1486.83 58.54C1489.45 58.54 1491.9 58.4261 1494.19 58.1975L1494.09 57.2025C1491.84 57.4273 1489.42 57.54 1486.83 57.54V58.54ZM1494.18 58.1977C1496.61 57.9671 1498.76 57.4465 1500.63 56.6281L1500.23 55.7119C1498.47 56.4801 1496.43 56.9796 1494.09 57.2022L1494.18 58.1977ZM1500.62 56.6323C1502.63 55.8043 1504.19 54.552 1505.27 52.8704L1504.43 52.3296C1503.47 53.8213 1502.08 54.949 1500.24 55.7077L1500.62 56.6323ZM1505.25 52.8906C1506.47 51.1886 1507.05 48.8624 1507.05 45.97H1506.05C1506.05 48.7443 1505.49 50.8381 1504.44 52.3094L1505.25 52.8906ZM1507.05 45.97C1507.05 43.2059 1506.59 41.003 1505.61 39.4179L1504.76 39.942C1505.6 41.3036 1506.05 43.2941 1506.05 45.97H1507.05ZM1505.62 39.4319C1504.66 37.747 1503.27 36.5376 1501.46 35.8158L1501.09 36.7442C1502.69 37.3824 1503.9 38.4396 1504.75 39.9281L1505.62 39.4319ZM1501.5 35.8328C1499.85 35.0075 1497.92 34.4843 1495.72 34.2527L1495.62 35.2472C1497.72 35.469 1499.53 35.9659 1501.05 36.7272L1501.5 35.8328ZM1495.72 34.2531C1493.66 34.0241 1491.43 33.91 1489.04 33.91V34.91C1491.4 34.91 1493.59 35.0226 1495.61 35.2469L1495.72 34.2531ZM1489.04 33.91H1469.49V34.91H1489.04V33.91ZM1468.99 34.41V58.04H1469.99V34.41H1468.99ZM1630.13 7.20999L1630.25 6.72401L1630.25 6.72401L1630.13 7.20999ZM1646.79 14.86L1646.47 15.2441L1646.48 15.2489L1646.48 15.2535L1646.79 14.86ZM1655.46 27.27L1654.99 27.4216L1654.99 27.4313L1655.46 27.27ZM1644.41 75.72L1644.13 75.304L1643.52 75.7122L1644.13 76.1311L1644.41 75.72ZM1651.55 82.52L1651.96 82.2259L1651.96 82.2259L1651.55 82.52ZM1655.97 90.51L1656.44 90.3243L1656.44 90.3243L1655.97 90.51ZM1658.18 99.35L1657.69 99.4052L1657.69 99.4156L1657.69 99.426L1658.18 99.35ZM1658.86 124V124.5H1659.36V124H1658.86ZM1622.48 124H1621.98V124.5H1622.48V124ZM1619.93 96.8L1619.48 97.0236L1619.49 97.0333L1619.49 97.0428L1619.93 96.8ZM1613.3 89.66L1613.06 90.0963L1613.06 90.0963L1613.3 89.66ZM1603.27 86.6L1603.2 87.0944L1603.21 87.0956L1603.21 87.0966L1603.27 86.6ZM1585.59 85.75V85.25H1585.09V85.75H1585.59ZM1585.59 124V124.5H1586.09V124H1585.59ZM1550.74 124H1550.24V124.5H1550.74V124ZM1550.74 4.66V4.16H1550.24V4.66H1550.74ZM1610.92 56.51L1610.96 57.0089L1610.96 57.0083L1610.97 57.0075L1610.92 56.51ZM1619.08 54.81L1619.26 55.276L1619.27 55.2717L1619.29 55.2669L1619.08 54.81ZM1623.33 51.07L1622.9 50.8219L1622.89 50.834L1622.88 50.8464L1623.33 51.07ZM1623.16 39.17L1622.74 39.432L1622.75 39.4516L1622.76 39.47L1623.16 39.17ZM1619.08 35.94L1618.91 36.4082L1618.91 36.4082L1619.08 35.94ZM1612.45 34.75L1612.41 35.2479L1612.42 35.249L1612.43 35.2495L1612.45 34.75ZM1585.59 34.41V33.91H1585.09V34.41H1585.59ZM1585.59 56.85H1585.09V57.35H1585.59V56.85ZM1603.61 5.16C1614.24 5.16 1623.04 6.00855 1630.01 7.69597L1630.25 6.72401C1623.17 5.01144 1614.29 4.16 1603.61 4.16V5.16ZM1630.01 7.69597C1636.99 9.38413 1642.47 11.9075 1646.47 15.2441L1647.11 14.4759C1642.96 11.0125 1637.33 8.43585 1630.25 6.72401L1630.01 7.69597ZM1646.48 15.2535C1650.6 18.4794 1653.43 22.5324 1654.99 27.4216L1655.94 27.1184C1654.32 22.0342 1651.37 17.8139 1647.1 14.4665L1646.48 15.2535ZM1654.99 27.4313C1656.67 32.3542 1657.51 38.1341 1657.51 44.78H1658.51C1658.51 38.0525 1657.66 32.1591 1655.94 27.1087L1654.99 27.4313ZM1657.51 44.78C1657.51 52.2159 1656.44 58.3766 1654.32 63.2818L1655.24 63.6782C1657.43 58.6101 1658.51 52.3041 1658.51 44.78H1657.51ZM1654.32 63.2818C1652.21 68.175 1648.82 72.1812 1644.13 75.304L1644.69 76.136C1649.53 72.9121 1653.05 68.7583 1655.24 63.6782L1654.32 63.2818ZM1644.13 76.1311C1647.04 78.1442 1649.37 80.3729 1651.15 82.8141L1651.96 82.2259C1650.11 79.6804 1647.68 77.3758 1644.7 75.3089L1644.13 76.1311ZM1651.15 82.8141C1652.94 85.2743 1654.39 87.9012 1655.51 90.6957L1656.44 90.3243C1655.29 87.4521 1653.79 84.7524 1651.96 82.2259L1651.15 82.8141ZM1655.51 90.6957C1656.62 93.4868 1657.35 96.3896 1657.69 99.4052L1658.68 99.2948C1658.33 96.1904 1657.59 93.1998 1656.44 90.3243L1655.51 90.6957ZM1657.69 99.426C1658.14 102.348 1658.36 105.269 1658.36 108.19H1659.36C1659.36 105.218 1659.13 102.245 1658.68 99.274L1657.69 99.426ZM1658.36 108.19V124H1659.36V108.19H1658.36ZM1658.86 123.5H1622.48V124.5H1658.86V123.5ZM1622.98 124V109.21H1621.98V124H1622.98ZM1622.98 109.21C1622.98 103.95 1622.13 99.7191 1620.37 96.5572L1619.49 97.0428C1621.14 100.001 1621.98 104.043 1621.98 109.21H1622.98ZM1620.38 96.5764C1618.75 93.3221 1616.48 90.8639 1613.55 89.2237L1613.06 90.0963C1615.8 91.6294 1617.94 93.9312 1619.48 97.0236L1620.38 96.5764ZM1613.55 89.2237C1610.65 87.5993 1607.24 86.563 1603.33 86.1034L1603.21 87.0966C1607.01 87.5437 1610.29 88.5473 1613.06 90.0963L1613.55 89.2237ZM1603.35 86.1056C1599.58 85.5347 1595.53 85.25 1591.2 85.25V86.25C1595.49 86.25 1599.49 86.5319 1603.2 87.0944L1603.35 86.1056ZM1591.2 85.25H1585.59V86.25H1591.2V85.25ZM1585.09 85.75V124H1586.09V85.75H1585.09ZM1585.59 123.5H1550.74V124.5H1585.59V123.5ZM1551.24 124V4.66H1550.24V124H1551.24ZM1550.74 5.16H1603.61V4.16H1550.74V5.16ZM1598.17 57.35C1603.28 57.35 1607.54 57.2366 1610.96 57.0089L1610.89 56.0111C1607.5 56.2368 1603.27 56.35 1598.17 56.35V57.35ZM1610.97 57.0075C1614.39 56.6652 1617.16 56.0922 1619.26 55.276L1618.9 54.344C1616.92 55.1144 1614.25 55.6748 1610.87 56.0125L1610.97 57.0075ZM1619.29 55.2669C1621.4 54.3256 1622.92 53.0085 1623.78 51.2936L1622.88 50.8464C1622.16 52.3048 1620.84 53.4811 1618.88 54.3531L1619.29 55.2669ZM1623.77 51.3181C1624.73 49.6304 1625.19 47.4387 1625.19 44.78H1624.19C1624.19 47.3346 1623.75 49.3363 1622.9 50.8219L1623.77 51.3181ZM1625.19 44.78C1625.19 42.334 1624.67 40.3451 1623.56 38.87L1622.76 39.47C1623.7 40.7149 1624.19 42.466 1624.19 44.78H1625.19ZM1623.59 38.9079C1622.62 37.3288 1621.16 36.1859 1619.26 35.4718L1618.91 36.4082C1620.63 37.0541 1621.89 38.0646 1622.74 39.432L1623.59 38.9079ZM1619.26 35.4718C1617.38 34.7682 1615.12 34.3653 1612.47 34.2505L1612.43 35.2495C1615 35.3613 1617.16 35.7518 1618.91 36.4082L1619.26 35.4718ZM1612.5 34.252C1609.99 34.0237 1607.08 33.91 1603.78 33.91V34.91C1607.06 34.91 1609.93 35.023 1612.41 35.2479L1612.5 34.252ZM1603.78 33.91H1585.59V34.91H1603.78V33.91ZM1585.09 34.41V56.85H1586.09V34.41H1585.09ZM1585.59 57.35H1598.17V56.35H1585.59V57.35ZM1710.18 123.32L1710.01 123.787L1710.01 123.788L1710.18 123.32ZM1689.44 110.4L1689.09 110.757L1689.1 110.761L1689.44 110.4ZM1675.84 90.34L1675.38 90.528L1675.38 90.5361L1675.84 90.34ZM1675.67 38.66L1675.21 38.4778L1675.21 38.4778L1675.67 38.66ZM1688.76 18.6L1689.11 18.9571L1689.11 18.957L1688.76 18.6ZM1762.2 5.67999L1762.02 6.14337L1762.02 6.14649L1762.2 5.67999ZM1782.77 18.77L1782.42 19.1271L1782.43 19.1339L1782.77 18.77ZM1796.54 38.83L1796.08 39.0238L1796.09 39.0318L1796.54 38.83ZM1796.37 90.17L1795.92 89.9651L1795.91 89.9706L1796.37 90.17ZM1782.43 110.23L1782.09 109.866L1782.09 109.869L1782.43 110.23ZM1762.03 123.32L1762.22 123.786L1762.22 123.783L1762.03 123.32ZM1749.96 95.1L1750.18 95.55L1750.19 95.5445L1749.96 95.1ZM1759.31 87.62L1758.93 87.3042L1758.93 87.3042L1759.31 87.62ZM1764.92 77.08L1765.4 77.2299L1765.4 77.2261L1764.92 77.08ZM1764.92 51.92L1764.44 52.0538L1764.44 52.0619L1764.45 52.0699L1764.92 51.92ZM1759.48 41.21L1759.87 40.8942L1759.87 40.8942L1759.48 41.21ZM1750.13 33.9L1749.9 34.3416L1749.91 34.3459L1749.92 34.3499L1750.13 33.9ZM1723.27 33.73L1723.48 34.1847L1723.48 34.1847L1723.27 33.73ZM1713.41 41.21L1713.03 40.8926L1713.03 40.8942L1713.41 41.21ZM1707.63 51.92L1707.16 51.7619L1707.16 51.7701L1707.63 51.92ZM1707.8 77.25L1707.33 77.4081L1707.33 77.4162L1707.33 77.4241L1707.8 77.25ZM1713.92 87.79L1713.54 88.1143L1713.55 88.1222L1713.92 87.79ZM1723.78 95.1L1723.57 95.5524L1723.58 95.5547L1723.78 95.1ZM1737.04 127.41C1727.35 127.41 1718.46 125.888 1710.36 122.852L1710.01 123.788C1718.23 126.872 1727.24 128.41 1737.04 128.41V127.41ZM1710.36 122.853C1702.37 119.815 1695.52 115.543 1689.79 110.039L1689.1 110.761C1694.93 116.364 1701.9 120.705 1710.01 123.787L1710.36 122.853ZM1689.79 110.043C1684.06 104.424 1679.57 97.7924 1676.3 90.1439L1675.38 90.5361C1678.69 98.301 1683.26 105.043 1689.09 110.757L1689.79 110.043ZM1676.31 90.152C1673.16 82.3982 1671.58 73.8496 1671.58 64.5H1670.58C1670.58 73.9637 1672.18 82.6418 1675.38 90.528L1676.31 90.152ZM1671.58 64.5C1671.58 55.1482 1673.1 46.5976 1676.14 38.8422L1675.21 38.4778C1672.12 46.3624 1670.58 55.0384 1670.58 64.5H1671.58ZM1676.14 38.8422C1679.17 31.0841 1683.5 24.4581 1689.11 18.9571L1688.41 18.2429C1682.69 23.8486 1678.29 30.5959 1675.21 38.4778L1676.14 38.8422ZM1689.11 18.957C1694.84 13.3428 1701.75 9.01559 1709.85 5.97816L1709.5 5.04183C1701.28 8.12441 1694.25 12.5238 1688.41 18.243L1689.11 18.957ZM1709.85 5.97816C1717.94 2.94224 1727.01 1.41999 1737.04 1.41999V0.419994C1726.91 0.419994 1717.72 1.95775 1709.5 5.04183L1709.85 5.97816ZM1737.04 1.41999C1745.94 1.41999 1754.26 2.99565 1762.02 6.1433L1762.39 5.21669C1754.51 2.01767 1746.06 0.419994 1737.04 0.419994V1.41999ZM1762.02 6.14649C1769.9 9.18324 1776.69 13.5105 1782.42 19.127L1783.12 18.413C1777.29 12.6962 1770.38 8.29675 1762.38 5.21349L1762.02 6.14649ZM1782.43 19.1339C1788.27 24.6371 1792.82 31.2649 1796.08 39.0237L1797 38.6363C1793.69 30.755 1789.06 24.0096 1783.12 18.4061L1782.43 19.1339ZM1796.09 39.0318C1799.45 46.6678 1801.14 55.1547 1801.14 64.5H1802.14C1802.14 55.032 1800.43 46.4055 1797 38.6282L1796.09 39.0318ZM1801.14 64.5C1801.14 73.7287 1799.4 82.2148 1795.92 89.9651L1796.83 90.3749C1800.37 82.4852 1802.14 73.858 1802.14 64.5H1801.14ZM1795.91 89.9706C1792.54 97.7319 1787.93 104.362 1782.09 109.866L1782.78 110.594C1788.72 104.992 1793.41 98.2481 1796.83 90.3694L1795.91 89.9706ZM1782.09 109.869C1776.36 115.376 1769.61 119.706 1761.85 122.857L1762.22 123.783C1770.1 120.587 1776.95 116.19 1782.78 110.591L1782.09 109.869ZM1761.85 122.854C1754.09 125.89 1745.82 127.41 1737.04 127.41V128.41C1745.94 128.41 1754.33 126.87 1762.22 123.786L1761.85 122.854ZM1737.04 98.32C1741.98 98.32 1746.36 97.4014 1750.18 95.5499L1749.75 94.6501C1746.08 96.4252 1741.85 97.32 1737.04 97.32V98.32ZM1750.19 95.5445C1753.99 93.5884 1757.16 91.0526 1759.7 87.9358L1758.93 87.3042C1756.48 90.3074 1753.42 92.7582 1749.73 94.6555L1750.19 95.5445ZM1759.7 87.9358C1762.24 84.8241 1764.14 81.2538 1765.4 77.2299L1764.45 76.9301C1763.22 80.8396 1761.38 84.2959 1758.93 87.3042L1759.7 87.9358ZM1765.4 77.2261C1766.66 73.0983 1767.29 68.8557 1767.29 64.5H1766.29C1766.29 68.7576 1765.68 72.9017 1764.45 76.9339L1765.4 77.2261ZM1767.29 64.5C1767.29 60.0324 1766.66 55.7882 1765.4 51.7701L1764.45 52.0699C1765.68 55.9851 1766.29 60.1276 1766.29 64.5H1767.29ZM1765.41 51.7862C1764.25 47.6446 1762.41 44.0115 1759.87 40.8942L1759.1 41.5258C1761.54 44.5285 1763.33 48.0354 1764.44 52.0538L1765.41 51.7862ZM1759.87 40.8942C1757.33 37.7747 1754.15 35.2935 1750.35 33.4501L1749.92 34.3499C1753.59 36.1332 1756.65 38.5253 1759.1 41.5258L1759.87 40.8942ZM1750.37 33.4584C1746.65 31.4852 1742.21 30.51 1737.04 30.51V31.51C1742.08 31.51 1746.36 32.4615 1749.9 34.3416L1750.37 33.4584ZM1737.04 30.51C1731.77 30.51 1727.11 31.4268 1723.07 33.2753L1723.48 34.1847C1727.37 32.4065 1731.89 31.51 1737.04 31.51V30.51ZM1723.07 33.2753C1719.03 35.1182 1715.68 37.6569 1713.03 40.8926L1713.8 41.5274C1716.36 38.4164 1719.58 35.9685 1723.48 34.1847L1723.07 33.2753ZM1713.03 40.8942C1710.49 44.0051 1708.54 47.6296 1707.16 51.7619L1708.11 52.0781C1709.45 48.0503 1711.35 44.5349 1713.8 41.5258L1713.03 40.8942ZM1707.16 51.7701C1705.89 55.7882 1705.26 60.0324 1705.26 64.5H1706.26C1706.26 60.1276 1706.88 55.9851 1708.11 52.0699L1707.16 51.7701ZM1705.26 64.5C1705.26 68.9722 1705.95 73.2757 1707.33 77.4081L1708.28 77.0919C1706.94 73.0643 1706.26 68.8678 1706.26 64.5H1705.26ZM1707.33 77.4241C1708.83 81.4427 1710.9 85.0074 1713.54 88.1142L1714.3 87.4658C1711.74 84.4526 1709.73 80.9907 1708.27 77.0759L1707.33 77.4241ZM1713.55 88.1222C1716.32 91.2348 1719.66 93.7115 1723.57 95.5524L1724 94.6476C1720.2 92.8619 1716.97 90.4652 1714.3 87.4578L1713.55 88.1222ZM1723.58 95.5547C1727.61 97.4012 1732.11 98.32 1737.04 98.32V97.32C1732.23 97.32 1727.89 96.4254 1723.99 94.6453L1723.58 95.5547Z" fill="#646464"/>
</svg>
