<svg width="1802" height="128" viewBox="0 0 1802 128" fill="none" xmlns="http://www.w3.org/2000/svg">
<path d="M131.08 61.95V124H107.96V114.99C103.54 119.07 98.1 122.187 91.64 124.34C85.2933 126.493 77.7 127.57 68.86 127.57C58.66 127.57 49.3667 126.04 40.98 122.98C32.5933 119.92 25.3967 115.613 19.39 110.06C13.4967 104.393 8.90667 97.7067 5.62 90C2.33333 82.18 0.690001 73.6233 0.690001 64.33C0.690001 54.3567 2.16333 45.46 5.11 37.64C8.17 29.7067 12.5333 23.02 18.2 17.58C23.98 12.14 31.0067 8.00333 39.28 5.16999C47.6667 2.22333 57.2433 0.749996 68.01 0.749996C77.19 0.749996 85.5767 1.88333 93.17 4.14999C100.877 6.30333 107.45 9.53333 112.89 13.84C118.443 18.1467 122.693 23.4733 125.64 29.82C128.7 36.0533 130.23 43.1933 130.23 51.24L95.72 51.58C95.38 48.6333 94.4733 45.97 93 43.59C91.64 41.0967 89.77 38.9433 87.39 37.13C85.1233 35.2033 82.4033 33.73 79.23 32.71C76.0567 31.69 72.5433 31.18 68.69 31.18C63.59 31.18 59 32.0867 54.92 33.9C50.84 35.7133 47.3833 38.15 44.55 41.21C41.7167 44.27 39.5067 47.7833 37.92 51.75C36.4467 55.7167 35.71 59.91 35.71 64.33C35.71 68.6367 36.4467 72.7733 37.92 76.74C39.5067 80.7067 41.7167 84.22 44.55 87.28C47.3833 90.2267 50.84 92.6067 54.92 94.42C59 96.2333 63.59 97.14 68.69 97.14C74.2433 97.14 79.3433 96.12 83.99 94.08C88.75 92.04 92.15 89.0933 94.19 85.24H63.42V61.95H131.08ZM198.598 4.66H232.938L291.418 124H251.978L244.158 106.83H185.848L178.028 124H140.288L198.598 4.66ZM199.618 77.08H230.558L215.258 43.59L199.618 77.08ZM407.558 94.08V124H301.308V4.66H336.158V94.08H407.558ZM472.192 4.66H506.532L565.012 124H525.572L517.752 106.83H459.442L451.622 124H413.882L472.192 4.66ZM473.212 77.08H504.152L488.852 43.59L473.212 77.08ZM612.424 4.66L637.584 37.3L662.914 4.66H704.904L658.494 64.33L704.904 124H662.914L637.584 91.36L612.424 124H570.434L616.674 64.33L570.434 4.66H612.424ZM750.047 4.66L774.527 43.25L799.347 4.66H840.997L792.037 71.64V124H757.187V71.64L708.227 4.66H750.047ZM897.471 4.66H955.611C962.184 4.66 968.247 5.39666 973.801 6.87C979.467 8.34333 984.341 10.5533 988.421 13.5C992.501 16.3333 995.674 19.8467 997.941 24.04C1000.32 28.12 1001.51 32.88 1001.51 38.32C1001.51 45.5733 1000.15 51.41 997.431 55.83C994.711 60.25 990.801 63.7067 985.701 66.2C992.387 68.58 997.034 71.98 999.641 76.4C1002.25 80.82 1003.55 86.0333 1003.55 92.04C1003.55 98.2733 1002.36 103.43 999.981 107.51C997.601 111.59 994.427 114.877 990.461 117.37C986.494 119.75 981.904 121.45 976.691 122.47C971.591 123.49 966.321 124 960.881 124H897.471V4.66ZM932.321 52.26H951.871C957.424 52.26 961.447 51.6933 963.941 50.56C966.547 49.4267 967.851 46.99 967.851 43.25C967.851 39.6233 966.491 37.2433 963.771 36.11C961.164 34.9767 957.537 34.41 952.891 34.41H932.321V52.26ZM932.321 94.08H944.391C949.491 94.08 953.684 94.0233 956.971 93.91C960.257 93.6833 962.864 93.2867 964.791 92.72C966.717 92.1533 968.021 91.36 968.701 90.34C969.494 89.2067 969.891 87.7333 969.891 85.92C969.891 84.22 969.551 82.86 968.871 81.84C968.191 80.82 967.001 80.0267 965.301 79.46C963.601 78.8933 961.334 78.5533 958.501 78.44C955.667 78.2133 952.041 78.1 947.621 78.1H932.321V94.08ZM1048.99 4.66V52.77C1048.99 57.9833 1049.1 63.2533 1049.33 68.58C1049.67 73.7933 1050.58 78.5533 1052.05 82.86C1053.64 87.0533 1056.07 90.51 1059.36 93.23C1062.65 95.8367 1067.29 97.14 1073.3 97.14C1079.76 97.14 1084.75 95.8367 1088.26 93.23C1091.89 90.6233 1094.55 87.2233 1096.25 83.03C1097.95 78.8367 1098.97 74.19 1099.31 69.09C1099.65 63.8767 1099.82 58.72 1099.82 53.62V4.66H1134.67V60.08C1134.67 69.8267 1133.82 78.78 1132.12 86.94C1130.42 95.1 1127.25 102.183 1122.6 108.19C1118.07 114.083 1111.83 118.673 1103.9 121.96C1095.97 125.247 1085.77 126.89 1073.3 126.89C1060.72 126.89 1050.58 125.247 1042.87 121.96C1035.16 118.56 1029.16 113.913 1024.85 108.02C1020.66 102.013 1017.82 94.93 1016.35 86.77C1014.88 78.61 1014.14 69.7133 1014.14 60.08V4.66H1048.99ZM1149.32 4.49H1194.88C1207.68 4.49 1218.56 5.79333 1227.52 8.4C1236.58 11.0067 1243.95 14.86 1249.62 19.96C1255.4 25.06 1259.59 31.35 1262.2 38.83C1264.92 46.1967 1266.28 54.6967 1266.28 64.33C1266.28 73.9633 1264.92 82.52 1262.2 90C1259.59 97.3667 1255.4 103.6 1249.62 108.7C1243.95 113.687 1236.58 117.483 1227.52 120.09C1218.56 122.697 1207.68 124 1194.88 124H1149.32V4.49ZM1184.17 94.08H1191.99C1199.35 94.08 1205.64 93.6833 1210.86 92.89C1216.07 91.9833 1220.32 90.4533 1223.61 88.3C1226.89 86.0333 1229.27 82.9733 1230.75 79.12C1232.33 75.2667 1233.13 70.3933 1233.13 64.5C1233.13 58.72 1232.33 53.9033 1230.75 50.05C1229.27 46.0833 1226.89 42.9667 1223.61 40.7C1220.32 38.32 1216.07 36.6767 1210.86 35.77C1205.64 34.75 1199.35 34.24 1191.99 34.24H1184.17V94.08ZM1307.68 79.8C1307.91 82.0667 1308.36 84.2767 1309.04 86.43C1309.72 88.47 1310.8 90.34 1312.27 92.04C1313.75 93.6267 1315.67 94.93 1318.05 95.95C1320.55 96.97 1323.66 97.48 1327.4 97.48C1332.84 97.48 1336.7 96.7433 1338.96 95.27C1341.23 93.7967 1342.36 91.9267 1342.36 89.66C1342.36 88.1867 1341.8 86.94 1340.66 85.92C1339.53 84.9 1338 84.05 1336.07 83.37C1334.26 82.5767 1332.05 81.8967 1329.44 81.33C1326.95 80.65 1324.23 79.97 1321.28 79.29C1316.41 78.27 1311.31 77.0233 1305.98 75.55C1300.77 74.0767 1295.95 72.0367 1291.53 69.43C1287.23 66.71 1283.66 63.14 1280.82 58.72C1277.99 54.3 1276.57 48.5767 1276.57 41.55C1276.57 34.8633 1277.88 28.97 1280.48 23.87C1283.09 18.77 1286.6 14.52 1291.02 11.12C1295.56 7.72 1300.88 5.17 1307 3.46999C1313.12 1.76999 1319.64 0.919994 1326.55 0.919994C1343.67 0.919994 1356.36 5.16999 1364.63 13.67C1373.02 22.17 1377.44 34.1267 1377.89 49.54H1344.4C1344.4 47.6133 1344.18 45.5733 1343.72 43.42C1343.27 41.2667 1342.36 39.2833 1341 37.47C1339.76 35.5433 1337.94 33.9567 1335.56 32.71C1333.3 31.4633 1330.29 30.84 1326.55 30.84C1321 30.84 1317.03 31.52 1314.65 32.88C1312.39 34.24 1311.25 35.8833 1311.25 37.81C1311.25 39.7367 1311.93 41.4367 1313.29 42.91C1314.65 44.27 1316.47 45.46 1318.73 46.48C1321 47.5 1323.61 48.4067 1326.55 49.2C1329.5 49.9933 1332.62 50.7867 1335.9 51.58C1340.89 52.7133 1345.88 54.0167 1350.86 55.49C1355.96 56.9633 1360.61 59.0033 1364.8 61.61C1369 64.2167 1372.4 67.56 1375 71.64C1377.61 75.72 1378.91 80.9333 1378.91 87.28C1378.91 94.6467 1377.5 100.88 1374.66 105.98C1371.94 111.08 1368.2 115.217 1363.44 118.39C1358.8 121.45 1353.36 123.66 1347.12 125.02C1340.89 126.493 1334.32 127.23 1327.4 127.23C1310.29 127.23 1297.14 123.207 1287.96 115.16C1278.9 107.113 1274.36 95.3267 1274.36 79.8H1307.68ZM1434.64 4.66H1486.66C1504.11 4.66 1517.43 8.06 1526.61 14.86C1535.9 21.5467 1540.55 31.5767 1540.55 44.95C1540.55 52.8833 1539.24 59.6267 1536.64 65.18C1534.14 70.62 1530.52 75.04 1525.76 78.44C1521.11 81.7267 1515.44 84.1067 1508.76 85.58C1502.18 87.0533 1494.82 87.79 1486.66 87.79H1469.49V124H1434.64V4.66ZM1469.49 58.04H1486.83C1489.43 58.04 1491.87 57.9267 1494.14 57.7C1496.52 57.4733 1498.61 56.9633 1500.43 56.17C1502.35 55.3767 1503.83 54.1867 1504.85 52.6C1505.98 51.0133 1506.55 48.8033 1506.55 45.97C1506.55 43.25 1506.09 41.1533 1505.19 39.68C1504.28 38.0933 1502.98 36.96 1501.28 36.28C1499.69 35.4867 1497.82 34.9767 1495.67 34.75C1493.63 34.5233 1491.42 34.41 1489.04 34.41H1469.49V58.04ZM1603.61 4.66C1614.27 4.66 1623.11 5.51 1630.13 7.20999C1637.16 8.90999 1642.71 11.46 1646.79 14.86C1650.99 18.1467 1653.88 22.2833 1655.46 27.27C1657.16 32.2567 1658.01 38.0933 1658.01 44.78C1658.01 52.26 1656.94 58.4933 1654.78 63.48C1652.63 68.4667 1649.17 72.5467 1644.41 75.72C1647.36 77.76 1649.74 80.0267 1651.55 82.52C1653.37 85.0133 1654.84 87.6767 1655.97 90.51C1657.11 93.3433 1657.84 96.29 1658.18 99.35C1658.64 102.297 1658.86 105.243 1658.86 108.19V124H1622.48V109.21C1622.48 103.997 1621.63 99.86 1619.93 96.8C1618.35 93.6267 1616.14 91.2467 1613.3 89.66C1610.47 88.0733 1607.13 87.0533 1603.27 86.6C1599.53 86.0333 1595.51 85.75 1591.2 85.75H1585.59V124H1550.74V4.66H1603.61ZM1598.17 56.85C1603.27 56.85 1607.52 56.7367 1610.92 56.51C1614.32 56.17 1617.04 55.6033 1619.08 54.81C1621.12 53.9033 1622.54 52.6567 1623.33 51.07C1624.24 49.4833 1624.69 47.3867 1624.69 44.78C1624.69 42.4 1624.18 40.53 1623.16 39.17C1622.26 37.6967 1620.9 36.62 1619.08 35.94C1617.27 35.26 1615.06 34.8633 1612.45 34.75C1609.96 34.5233 1607.07 34.41 1603.78 34.41H1585.59V56.85H1598.17ZM1737.04 127.91C1727.3 127.91 1718.34 126.38 1710.18 123.32C1702.14 120.26 1695.22 115.953 1689.44 110.4C1683.66 104.733 1679.13 98.0467 1675.84 90.34C1672.67 82.52 1671.08 73.9067 1671.08 64.5C1671.08 55.0933 1672.61 46.48 1675.67 38.66C1678.73 30.84 1683.1 24.1533 1688.76 18.6C1694.54 12.9333 1701.51 8.57 1709.67 5.51C1717.83 2.44999 1726.96 0.919994 1737.04 0.919994C1746 0.919994 1754.38 2.50666 1762.2 5.67999C1770.14 8.73999 1776.99 13.1033 1782.77 18.77C1788.67 24.3233 1793.26 31.01 1796.54 38.83C1799.94 46.5367 1801.64 55.0933 1801.64 64.5C1801.64 73.7933 1799.89 82.35 1796.37 90.17C1792.97 97.99 1788.33 104.677 1782.43 110.23C1776.65 115.783 1769.85 120.147 1762.03 123.32C1754.21 126.38 1745.88 127.91 1737.04 127.91ZM1737.04 97.82C1741.92 97.82 1746.22 96.9133 1749.96 95.1C1753.7 93.1733 1756.82 90.68 1759.31 87.62C1761.81 84.56 1763.68 81.0467 1764.92 77.08C1766.17 73 1766.79 68.8067 1766.79 64.5C1766.79 60.08 1766.17 55.8867 1764.92 51.92C1763.79 47.84 1761.98 44.27 1759.48 41.21C1756.99 38.15 1753.87 35.7133 1750.13 33.9C1746.51 31.9733 1742.14 31.01 1737.04 31.01C1731.83 31.01 1727.24 31.9167 1723.27 33.73C1719.31 35.5433 1716.02 38.0367 1713.41 41.21C1710.92 44.27 1708.99 47.84 1707.63 51.92C1706.39 55.8867 1705.76 60.08 1705.76 64.5C1705.76 68.92 1706.44 73.17 1707.8 77.25C1709.28 81.2167 1711.32 84.73 1713.92 87.79C1716.64 90.85 1719.93 93.2867 1723.78 95.1C1727.75 96.9133 1732.17 97.82 1737.04 97.82Z" fill="#191919"/>
</svg>
